<?xml version="1.0" encoding="utf-8"?>
<!-- Generator: Adobe Illustrator 18.0.0, SVG Export Plug-In . SVG Version: 6.00 Build 0)  -->
<svg version="1.2" baseProfile="tiny" id="Layer_1" xmlns="http://www.w3.org/2000/svg" xmlns:xlink="http://www.w3.org/1999/xlink"
	 x="0px" y="0px" width="500px" height="500px" viewBox="0 0 500 500" xml:space="preserve">
<path id="speech-bubble-14-icon" d="M473.2,414.1c16.4-19.8,25.7-45.4,25.7-71.4c0-42.6-24-78.6-59.7-101.2
	c5.1-15.8,7.7-32.1,7.7-48.7C446.9,83.8,341,5.1,224,5.1C106.2,5.1,1.1,84.4,1.1,192.8c0,38.5,13.7,76.2,38,105.5
	c1,34.3-19,83.6-37,119.4c48.3-8.8,117.1-28.3,148.2-47.6c18.3,4.5,36,7.3,53.2,8.6c21.6,61.1,96.9,107.9,194.5,84
	c21.1,13,67.6,26.2,100.3,32.2C486.1,470.6,472.5,437.3,473.2,414.1z M149,325c-41.8,24.4-78.6,34.2-78.6,34.2S82.9,325.6,88,287
	c-25.5-26-43.6-52.4-43.6-94.2C44.5,113.2,125,48.5,224,48.5c99,0,179.5,64.7,179.5,144.3C403.5,275.1,308.9,367.4,149,325z
	 M446.8,450c0,0-23.7-6.3-50.5-22c-79.4,21.1-133.7-9.5-154.4-48.9c85.1-4.9,150.8-48.4,183-105.2c23.6,17,38.6,41.7,38.6,69.1
	c0,26.9-11.6,43.9-28,60.6C438.8,428.4,446.8,450,446.8,450z"/>
</svg>
