<?xml version="1.0" encoding="utf-8"?>
<!-- Generator: Adobe Illustrator 18.0.0, SVG Export Plug-In . SVG Version: 6.00 Build 0)  -->
<svg version="1.2" baseProfile="tiny" id="Layer_1" xmlns="http://www.w3.org/2000/svg" xmlns:xlink="http://www.w3.org/1999/xlink"
	 x="0px" y="0px" width="500px" height="500px" viewBox="0 0 500 500" xml:space="preserve">
<path id="download-9-icon" d="M376.1,275.7L251.2,400.9L126.3,275.7h57.5v-46.9h135v46.9H376.1z M183.7,207.1h135v-37.9h-135V207.1z
	 M318.7,149.3v-30.9h-135v30.9H318.7z M49.3,250c0,110.9,89.8,200.7,200.7,200.7c110.9,0,200.7-89.8,200.7-200.7
	c0-110.9-89.8-200.7-200.7-200.7C139.1,49.3,49.3,139.1,49.3,250z M499,250c0,137.5-111.5,249-249,249S1,387.5,1,250S112.5,1,250,1
	S499,112.5,499,250z"/>
</svg>
