<?xml version="1.0" encoding="utf-8"?>
<!-- Generator: Adobe Illustrator 18.0.0, SVG Export Plug-In . SVG Version: 6.00 Build 0)  -->
<svg version="1.2" baseProfile="tiny" id="Layer_1" xmlns="http://www.w3.org/2000/svg" xmlns:xlink="http://www.w3.org/1999/xlink"
	 x="0px" y="0px" width="500px" height="500px" viewBox="0 0 500 500" xml:space="preserve">
<path id="bulleted-list-icon" d="M156.2,80.1H500v48.6H156.2V80.1z M156.2,225.7H500v48.6H156.2V225.7z M156.2,371.4H500v48.6H156.2
	V371.4z M48.5,55.8C21.7,55.8,0,77.5,0,104.3c0,26.8,21.7,48.6,48.6,48.6c26.8,0,48.6-21.7,48.6-48.6C97.1,77.5,75.3,55.8,48.5,55.8
	z M48.5,201.4C21.7,201.4,0,223.2,0,250c0,26.8,21.7,48.6,48.6,48.6c26.8,0,48.6-21.7,48.6-48.6C97.1,223.2,75.3,201.4,48.5,201.4z
	 M48.5,347.1C21.7,347.1,0,368.8,0,395.7c0,26.8,21.7,48.6,48.6,48.6c26.8,0,48.6-21.7,48.6-48.6C97.1,368.8,75.3,347.1,48.5,347.1z
	"/>
</svg>
