<?xml version="1.0" encoding="utf-8"?>
<!-- Generator: Adobe Illustrator 18.0.0, SVG Export Plug-In . SVG Version: 6.00 Build 0)  -->
<svg version="1.2" baseProfile="tiny" id="Layer_1" xmlns="http://www.w3.org/2000/svg" xmlns:xlink="http://www.w3.org/1999/xlink"
	 x="0px" y="0px" width="500px" height="500px" viewBox="0 0 500 500" xml:space="preserve">
<path id="loading-10-icon" d="M308.3,49.2c0,27.2-22,49.2-49.2,49.2s-49.2-22-49.2-49.2S231.9,0,259.1,0S308.3,22,308.3,49.2z
	 M259.1,413.7c-23.8,0-43.1,19.3-43.1,43.1s19.3,43.1,43.1,43.1s43.1-19.3,43.1-43.1S282.9,413.7,259.1,413.7z M462.9,283.8
	c-17,0-30.8-13.8-30.8-30.8s13.8-30.8,30.8-30.8c17,0,30.8,13.8,30.8,30.8C493.6,270,479.9,283.8,462.9,283.8z M104.6,253
	c0-27.2-22-49.2-49.2-49.2S6.1,225.8,6.1,253c0,27.2,22,49.2,49.2,49.2S104.6,280.2,104.6,253z M149.8,74.1
	c19.2,19.2,19.2,50.4,0,69.6c-19.2,19.2-50.4,19.2-69.6,0C61,124.5,61,93.3,80.2,74.1C99.4,54.9,130.6,54.9,149.8,74.1z M377.1,371
	c-14.4,14.4-14.4,37.8,0,52.2s37.8,14.4,52.2,0c14.4-14.4,14.4-37.8,0-52.2C414.9,356.5,391.5,356.5,377.1,371z M420.6,126.3
	c-9.6,9.6-25.2,9.6-34.8,0c-9.6-9.6-9.6-25.2,0-34.8c9.6-9.6,25.2-9.6,34.8,0C430.2,101.1,430.2,116.7,420.6,126.3z M149.8,362.3
	c-19.2-19.2-50.4-19.2-69.6,0c-19.2,19.2-19.2,50.4,0,69.6c19.2,19.2,50.4,19.2,69.6,0C169.1,412.7,169.1,381.5,149.8,362.3z"/>
</svg>
