<?xml version="1.0" encoding="utf-8"?>
<!-- Generator: Adobe Illustrator 16.0.0, SVG Export Plug-In . SVG Version: 6.00 Build 0)  -->
<svg version="1.2" baseProfile="tiny" id="Layer_1" xmlns="http://www.w3.org/2000/svg" xmlns:xlink="http://www.w3.org/1999/xlink"
	 x="0px" y="0px" width="500px" height="500px" viewBox="0 0 500 500" xml:space="preserve">
<path id="skype-icon" d="M475.311,290.14c2.286-12.986,3.548-26.319,3.548-39.963c0-126.493-102.546-229.035-229.041-229.035
	c-14.414,0-28.497,1.393-42.172,3.94c-20.229-12.316-43.984-19.41-69.402-19.41c-73.829,0-133.671,59.842-133.671,133.67
	c0,25.73,7.287,49.748,19.88,70.14c-2.372,13.217-3.675,26.796-3.675,40.695c0,126.5,102.542,229.045,229.041,229.045
	c14.681,0,29.017-1.438,42.923-4.077c20.149,12.173,43.759,19.182,69.019,19.182c73.824,0,133.668-59.847,133.668-133.673
	C495.428,334.765,488.048,310.611,475.311,290.14z M257.891,410.445c-65.23,0-130.793-29.575-130.46-80.489
	c0.101-15.357,11.573-29.456,26.828-29.456c38.402,0,38.051,57.074,99.206,57.074c42.918,0,57.558-23.408,57.558-39.717
	c0-58.918-185.45-22.797-185.45-133.616c0-59.969,49.271-101.343,126.711-96.793c73.86,4.338,117.13,36.824,121.328,67.169
	c2.066,19.815-11.12,35.235-34.003,35.235c-33.404,0-36.824-44.541-94.341-44.541c-25.953,0-47.872,10.786-47.872,34.194
	c0,48.921,184.355,20.516,184.355,128.18C381.748,369.76,332.063,410.445,257.891,410.445z"/>
</svg>
