<?xml version="1.0" encoding="utf-8"?>
<!-- Generator: Adobe Illustrator 18.0.0, SVG Export Plug-In . SVG Version: 6.00 Build 0)  -->
<svg version="1.2" baseProfile="tiny" id="Layer_1" xmlns="http://www.w3.org/2000/svg" xmlns:xlink="http://www.w3.org/1999/xlink"
	 x="0px" y="0px" width="500px" height="500px" viewBox="0 0 500 500" xml:space="preserve">
<g>
	<path id="twitter-5-icon" d="M250,48.6c111.3,0,201.4,90.1,201.4,201.4c0,111.3-90.1,201.4-201.4,201.4
		c-111.3,0-201.4-90.1-201.4-201.4C48.6,138.7,138.7,48.6,250,48.6 M250,0C112,0,0,112,0,250S112,500,250,500s250-111.9,250-250
		S388.1,0,250,0L250,0z M386.9,184.5c-9.4,4.2-19.4,7-30,8.2c10.8-6.5,19-16.7,22.9-28.9c-10.1,6-21.3,10.3-33.1,12.7
		c-9.5-10.1-23.1-16.5-38.1-16.5c-33.7,0-58.4,31.4-50.8,64.1c-43.4-2.2-81.8-23-107.6-54.5c-13.7,23.4-7.1,54.1,16.1,69.7
		c-8.6-0.3-16.6-2.6-23.6-6.5c-0.6,24.2,16.8,46.8,41.9,51.8c-7.3,2-15.4,2.5-23.6,0.9c6.6,20.7,25.9,35.8,48.7,36.2
		c-21.9,17.2-49.6,24.9-77.3,21.6c23.1,14.8,50.5,23.4,80,23.4c96.9,0,151.6-81.8,148.3-155.2C371.1,204.1,379.9,195,386.9,184.5z"
		/>
</g>
</svg>
