<?xml version="1.0" encoding="utf-8"?>
<!-- Generator: Adobe Illustrator 18.0.0, SVG Export Plug-In . SVG Version: 6.00 Build 0)  -->
<svg version="1.2" baseProfile="tiny" id="Layer_1" xmlns="http://www.w3.org/2000/svg" xmlns:xlink="http://www.w3.org/1999/xlink"
	 x="0px" y="0px" width="500px" height="500px" viewBox="0 0 500 500" xml:space="preserve">
<path id="twitter-icon" d="M500,94.9c-18.4,8.2-38.2,13.7-58.9,16.2c21.2-12.7,37.4-32.8,45.1-56.8c-19.8,11.8-41.8,20.3-65.1,24.9
	c-18.7-19.9-45.4-32.4-74.9-32.4c-66.2,0-114.9,61.8-99.9,126C161,168.5,85.4,127.7,34.8,65.6C7.9,111.7,20.9,172,66.6,202.6
	c-16.8-0.5-32.6-5.1-46.5-12.8c-1.1,47.5,32.9,92,82.3,101.9c-14.4,3.9-30.2,4.8-46.3,1.8c13.1,40.8,50.9,70.4,95.8,71.2
	C108.7,398.4,54.4,413.5,0,407.1c45.4,29.1,99.3,46.1,157.2,46.1c190.5,0,298.1-160.9,291.6-305.1C468.9,133.6,486.2,115.5,500,94.9
	z"/>
</svg>
