<?xml version="1.0" standalone="no"?>
<!DOCTYPE svg PUBLIC "-//W3C//DTD SVG 1.1//EN" "http://www.w3.org/Graphics/SVG/1.1/DTD/svg11.dtd" >
<svg xmlns="http://www.w3.org/2000/svg">
<metadata>
Created by FontPrep 20130207 at Sun Mar  1 21:52:59 2015
 By Olivier Bossel
FREE FOR PERSONAL USE 
</metadata>
<defs>
<font id="9a7d6abc67799162b7fdd5fa3ea038cc" horiz-adv-x='1024' >
  <font-face 
    font-family="StinkontheDeath"
    font-weight="400"
    font-stretch="normal"
    units-per-em="2048"
    panose-1="2 0 0 0 0 0 0 0 0 0"
    ascent="1536"
    descent="-512"
    x-height="604"
    cap-height="999"
    bbox="-401 -295 2013 1333"
    underline-thickness="102"
    underline-position="-102"
    unicode-range="U+0020-2212"
  />
<missing-glyph horiz-adv-x="245" 
 />
    <glyph glyph-name="o_1" unicode="or" horiz-adv-x="872" 
d="M598 702q0 29 -18 29q-12 0 -23.5 -16.5t-11.5 -51.5t39 -53q14 63 14 92zM358 432q-45 -10 -51 -82q0 -40 19 -63q10 29 23 60t14 55t-5 30zM885 536q-1 -22 -11 -47t-90.5 -164t-89.5 -227q0 -6 21 -6t52.5 16.5t56 36t41 36t20.5 16.5q6 -4 6 -13q-21 -41 -58 -77
q-81 -78 -163 -78q-27 0 -54.5 20.5t-27.5 54.5t16.5 87t34.5 110t34.5 108.5t16.5 67.5t-10 17q-30 0 -53 -5q-35 -121 -73.5 -191.5t-137.5 -94.5q-55 -98 -128 -137t-140 -39t-113.5 54t-41.5 170t64.5 208t103 128t73.5 36t45.5 -10.5t25.5 -25t14.5 -27.5t4.5 -21.5
t-28 -14.5t-63.5 -45t-73 -114t-43.5 -175q-5 -100 51 -100t126 123q-25 12 -47.5 44t-19.5 77q6 86 48.5 150.5t122.5 64.5t80 -131q-4 -63 -39 -160q54 15 75.5 73t47.5 169q-88 43 -88 153q0 79 50 142t128 63q64 0 64 -84q0 -43 -14.5 -91t-26.5 -91q86 0 145 18
q35 0 50.5 -26t15.5 -48z" />
    <glyph glyph-name="p_1" unicode="pr" horiz-adv-x="872" 
d="M598 702q0 29 -18 29q-12 0 -23.5 -16.5t-11.5 -51.5t39 -53q14 63 14 92zM260 404q0 -22 7 -48.5t42 -42.5q40 81 36.5 128.5t-21.5 58.5q-35 0 -49.5 -37t-14.5 -59zM119 88q72 0 111.5 70.5t52.5 93.5q-57 11 -79 45.5t-22 62.5q-27 -49 -39 -77q-12 -29 -37.5 -78.5
t-25.5 -77.5q0 -39 39 -39zM885 536q-1 -22 -11 -47t-90.5 -164t-89.5 -227q0 -6 21 -6t52.5 16.5t56 36t41 36t20.5 16.5q6 -4 6 -13q-21 -41 -58 -77q-81 -78 -163 -78q-27 0 -54.5 20.5t-27.5 54.5t16.5 87t34.5 110t34.5 108.5t16.5 67.5t-10 17q-8 0 -19.5 -2.5
t-25.5 -4.5q-66 -170 -189 -213q-53 -109 -129.5 -176t-153.5 -67t-114 39q-92 -212 -92 -275q4 -14 -16 -14q-23 0 -44.5 18.5t-21.5 73.5t42 175t61.5 174t42 113.5t53 138t30.5 93.5l-8 39q0 10 16.5 11t43.5 1t62.5 -15t37.5 -56q69 78 150 78q88 0 88 -150
q0 -70 -23 -137q31 16 51.5 48t38.5 114q-88 43 -88 153q0 79 50 142t128 63q64 0 64 -84q0 -43 -14.5 -91t-26.5 -91q86 0 145 18q35 0 50.5 -26t15.5 -48z" />
    <glyph glyph-name="b_1" unicode="br" horiz-adv-x="475" 
d="M563 702q0 29 -18 29q-12 0 -23.5 -16.5t-11.5 -51.5t39 -53q14 63 14 92zM475 464q0 -52 -31 -142q55 38 66.5 97.5t15.5 80.5q-41 18 -61 51q10 -35 10 -87zM334 478.5q0 13.5 -4 13.5q-23 0 -41.5 -38t-18.5 -79t25 -62q35 86 37 119t2 46.5zM205 381q0 49 12 96
q-149 -305 -149 -350q0 -37 41 -37q80 0 159 164q-63 39 -63 127zM850 536q0 -22 -10 -47t-89.5 -159.5t-91.5 -231.5q0 -6 21 -6t52.5 16.5t56 36t41 36t20.5 16.5q6 -4 6 -13q-43 -86 -108.5 -120.5t-102.5 -34.5t-64.5 20.5t-27.5 54.5q0 38 51 195.5t51 175.5t-10 19
q-22 0 -45 -5q-33 -121 -80 -178t-112 -67q-53 -96 -126 -153.5t-145 -57.5q-35 0 -53 8t-41 25l-2 -17l2 -8q0 -8 -16 -8t-41 16.5t-25 76.5t80 259q23 62 85 215.5t79 190.5q4 16 0 30.5t-4 28.5q-1 14 27 14q132 0 132 -70q0 -37 -25 -81t-81 -162q49 70 135 70
q37 0 57 -29q-8 28 -8 64q0 76 50 139t128 63q64 0 64 -84q0 -49 -14.5 -94t-26.5 -88q87 0 145 18q37 0 51.5 -26t14.5 -48z" />
    <glyph glyph-name=".notdef" horiz-adv-x="245" 
 />
    <glyph glyph-name=".null" horiz-adv-x="0" 
 />
    <glyph glyph-name="nonmarkingreturn" horiz-adv-x="681" 
 />
    <glyph glyph-name="space" unicode=" " horiz-adv-x="245" 
 />
    <glyph glyph-name="exclam" unicode="!" horiz-adv-x="626" 
d="M187 190q17 0 40 -10t26 -15t3 -29t-14.5 -71t-14.5 -90l4 -32q0 -13 -38 -13t-60 7q-37 0 -51 27.5t-14 41.5q20 81 61 132.5t58 51.5zM555 1290q0 8 10 8q27 0 70 -28t43 -67q0 -40 -41 -126t-128 -270t-156.5 -349.5t-69.5 -232.5q0 -16 7 -22t7 -9t-8 -4
q-41 0 -61.5 39t-22.5 78q6 217 130.5 479t151.5 317q27 56 33 74.5t14.5 40t14.5 43t6 29.5z" />
    <glyph glyph-name="dollar" unicode="$" horiz-adv-x="942" 
d="M417 595l-60 -1h-30q-30 0 -36 -6q-12 0 -12 63.5t53 63.5l17 -1q17 -1 39 9t61 24t49 18q22 46 26 57q4 10 8 18t9.5 20t11.5 28.5t11 32t5 21.5t8.5 3t33.5 -31t-22 -117q13 5 27 9t30 10l6 15t9 25.5t5 22t13 1.5t21 -23q9 -18 9 -21l102 32l18 2q43 0 43 -71
q0 -14 -38.5 -87.5t-38.5 -85.5t4 -12q0 -4 -9 -4q-32 0 -64 13.5t-32 32.5t13 34h2q0 7 45 58q-30 -6 -66 -13q-24 -51 -41 -85q31 -14 51 -27t41 -27t59 -61.5t38 -149.5q0 -165 -139.5 -261.5t-293.5 -96.5q-18 0 -36 1q-20 -57 -16.5 -66t3.5 -11h-4q-34 8 -25 83
q-36 8 -66 20q-7 -23 -4 -30.5t3 -9.5h-4q-26 6 -26 53q-136 68 -136 199t97.5 196t200.5 73q14 31 27 60zM538 584q-24 4 -47 6q-13 -27 -26 -55q25 -2 47 -8q13 30 26 57zM612 494q74 -36 74 -77q0 -40 -27.5 -67.5t-31.5 -27.5q0 2 -21 23.5t-81 47.5q-3 -3 -52 -113
q-50 -110 -67 -152q105 6 179 54t113 99q39 76 39 124q0 90 -87 142q-20 12 -43 20l-29 -61q20 -8 34 -14v2zM347 128q27 87 113 286q-22 5 -48 7q-96 -209 -126 -287q27 -5 61 -6zM141 272q0 -91 97 -125q27 104 102 276q-125 -8 -162 -65t-37 -86zM581 674q10 20 22 47
l-54 -10q-6 -12 -12 -25q22 -5 44 -12z" />
    <glyph glyph-name="quotesingle" unicode="'" horiz-adv-x="286" 
d="M323 862q34 0 46 -14t12 -22q0 -14 -54.5 -115t-68.5 -101t-25.5 8.5t-9.5 12.5q-4 4 -4 6l11 26q11 26 37 82.5t26 85.5l-4 17q0 14 34 14z" />
    <glyph glyph-name="parenleft" unicode="(" horiz-adv-x="696" 
d="M209 -94q0 -27 8 -46.5t8 -33.5t-28.5 -22.5t-48.5 -8.5q-48 0 -80.5 31t-32.5 87t33.5 136t102.5 207t216 365.5t180 299.5q40 75 72 165t48 90t17 -50t-36 -146.5t-92.5 -215.5t-119 -248t-155.5 -325.5t-92 -284.5z" />
    <glyph glyph-name="parenright" unicode=")" horiz-adv-x="727" 
d="M-14 -156q0 49 36.5 146.5t92 216.5t119 248t155.5 324t92 286q0 27 -8 46t-8 36q0 12 28.5 20.5t48.5 8.5q46 0 79.5 -30.5t33.5 -87.5t-33.5 -136.5t-86 -176t-116 -203t-123.5 -204.5t-111.5 -181t-72.5 -126q-35 -71 -64 -153.5t-45 -82.5q-17 0 -17 49z" />
    <glyph glyph-name="asterisk" unicode="*" horiz-adv-x="425" 
d="M219 647q0 -4 -5 -4t-19.5 21.5t-14.5 46.5q0 38 60 65q-23 4 -51.5 25t-28.5 47t6 26q30 -30 100 -34q-57 47 -57 79t22.5 52t30.5 20l-2 -2q0 -12 92 -104l13 43q4 18 11.5 58t12.5 40q18 0 46 -12.5t31 -40.5t-15 -84q72 45 71 82q10 0 16.5 -15.5t6.5 -35.5t-19 -48
l-18 -24h22q43 -6 56.5 -24.5t13.5 -50.5t-5 -32t-44 6.5t-84 6.5q41 -59 41 -102t-31 -54l-4 -2l2 12q0 23 -21.5 44.5t-50.5 49.5q-8 -29 -15 -43.5t-7 -38.5t14 -45q-2 -2 -3 -2h-18q-11 0 -24.5 13.5t-24 42.5t-10.5 49t1 25.5t1 9.5q-13 -13 -19 -14q-12 -2 -45.5 -25
t-33.5 -27z" />
    <glyph glyph-name="plus" unicode="+" horiz-adv-x="645" 
d="M238 277q0 33 8 77q-142 8 -182.5 51t-40.5 73t8 30q4 -2 6 -9t36 -23t195 -15q4 16 12.5 42.5t26.5 110t10 91.5q-3 8 13 8q35 0 70.5 -22.5t35.5 -63t-41 -158.5q62 4 121 4q102 0 102 -100q0 -28 -9 -42q-23 17 -255 17q-35 -118 -35 -169.5t8.5 -59.5t12.5 -13
q-4 -4 -24 -4t-37 17.5t-26 43t-12 53.5t-3 61zM609 331q-2 -2 -3 -1h4z" />
    <glyph glyph-name="comma" unicode="," horiz-adv-x="405" 
d="M266 131q54 -14 61 -24q7 -11 -3.5 -34.5t-40 -73t-81 -119t-55.5 -72.5t-4 -5l-2 -4q-25 -6 -62 20t-45 53q-9 26 -1 34q4 0 8 -1t18 4q21 7 101.5 107t88.5 108q7 7 17 7z" />
    <glyph glyph-name="hyphen" unicode="-" horiz-adv-x="669" 
d="M618 498q6 4 11.5 -12.5t3.5 -64t-58.5 -59t-233 7.5t-273.5 -26q-14 -6 -16.5 -13t-6.5 -9q-2 0 -2 4q-16 35 8.5 64.5t62.5 49.5q55 28 259 30.5t245 27.5z" />
    <glyph glyph-name="period" unicode="." horiz-adv-x="288" 
d="M336 28q0 -51 -25 -105t-62 -54t-62 30.5t-25 38.5t5 9.5t17 12.5t47 61.5t52 50.5q10 2 31.5 -10.5t21.5 -33.5z" />
    <glyph glyph-name="slash" unicode="/" horiz-adv-x="454" 
d="M461 1053q0 6 10 6q26 0 69.5 -28.5t43.5 -65.5t-48.5 -141.5t-159 -341t-199.5 -445t-89 -275.5q0 -16 7 -22t7 -9t-8 -3q-41 0 -61.5 38.5t-22.5 77.5q14 231 196 610t218.5 468.5t36.5 130.5z" />
    <glyph glyph-name="zero" unicode="0" horiz-adv-x="876" 
d="M786.5 264q-57.5 -139 -149.5 -227q-139 -139 -295 -139t-230.5 121.5t-74.5 254.5q0 132 42 233t101.5 173t126 110t103.5 42t55 -14.5t30.5 -43t18.5 -48.5t6 -32t-10 -11t-43.5 -10.5t-60.5 -21.5q-80 -41 -163 -150t-83 -274q0 -119 78 -218.5t223.5 -24.5
t195.5 222.5t50 256.5t-29 195.5t-120 146.5t-126 53q-10 -2 -5 17.5t33.5 64.5t69.5 45q23 -1 76 -29t87 -58t92.5 -114.5t58.5 -232.5t-57.5 -287z" />
    <glyph glyph-name="one" unicode="1" horiz-adv-x="829" 
d="M381 -70q0 -16 7 -22t7 -9t-8 -3q-41 0 -61.5 38.5t-22.5 77.5q6 190 150 503t155 347q-61 0 -183 -198t-198 -359q-16 -35 -16 -60.5t-13 -25.5q-38 0 -86.5 20.5t-48.5 61.5q0 73 115 237t229 276t196 145.5t127.5 11t45.5 -62.5t-41 -126t-128 -270t-156.5 -349.5
t-69.5 -232.5z" />
    <glyph glyph-name="two" unicode="2" horiz-adv-x="1042" 
d="M739 748q0 46 -46.5 79t-118.5 33t-142 -41t-119 -100.5t-75.5 -129t-26.5 -131.5t17.5 -99t39 -56.5t39 -27t17.5 -14.5q0 -16 -33 -51.5t-60 -35.5q-48 0 -96 57q-88 88 -88 242q0 90 42 180t112.5 163t165 119t180.5 46t174.5 -44.5t103.5 -229.5q0 -198 -213 -425
t-372 -280q70 -29 108.5 -48.5t88 -35.5t136.5 -16q119 0 183 24.5t84 45.5t31.5 40t17.5 33t10 23.5t12 9.5t38 -18t46.5 -34t16.5 -60t-31 -88t-117 -86t-236 -21t-311 106.5t-180 89.5q-37 0 -44 35.5t-7 59.5t1 36.5t11 12.5l31 -9q14 0 39 10t92 26.5t242 191.5
q237 237 237 418z" />
    <glyph glyph-name="three" unicode="3" horiz-adv-x="985" 
d="M176 906q0 64 44 63q83 0 276.5 -15t285.5 -28q8 23 8.5 41t19.5 18t66.5 -27t47.5 -59q0 -33 -23.5 -59.5t-58.5 -59t-77 -72t-81 -90.5q120 -24 192 -120t72 -240q0 -80 -48 -163t-172.5 -176t-326.5 -93q-146 0 -256 83.5t-110 231.5q0 149 137.5 235.5t282.5 86.5
t225 -46.5t80 -81.5t-27 -80.5t-39 -45.5l-18 17q-48 46 -130 69.5t-146 23.5q-125 0 -215.5 -57t-90.5 -145q0 -168 264 -168q160 0 313.5 100t153.5 252q0 78 -35.5 122t-77.5 70.5t-78 44t-36 49.5t14.5 66.5t37 68.5t49 70.5t51.5 77.5q-25 -4 -74 -7t-107.5 -7t-120 -8
t-110.5 -8q59 -39 79.5 -56.5t20.5 -37.5q0 -31 -41.5 -55.5t-55.5 -24.5q-13 0 -13 7t-30 56t-74 85t-46 51t-2 41z" />
    <glyph glyph-name="four" unicode="4" horiz-adv-x="774" 
d="M582 565q124 0 123 -78q0 -35 -53.5 -142t-94.5 -187q105 19 114 33t14 14q11 0 30.5 -36.5t19.5 -67.5q0 -30 -6 -44t-40.5 -27t-203.5 -24q-63 -128 -63 -192q0 -18 9 -26.5t9 -12.5t-8 -4q-84 23 -84 118q0 66 10 111q-16 -2 -20 -2h-41q-129 0 -198.5 31.5
t-69.5 125.5t88.5 348.5t127 348.5t38.5 86q0 14 -4.5 23.5t-4.5 13.5q0 12 33 12q117 0 117 -76q0 -26 -12 -57q0 -25 -54.5 -144.5t-147 -321.5t-104.5 -302q12 -6 41 -6t256 45q66 154 110 254t44 117h-2q6 16 4 28.5t-2 26.5q1 14 25 14z" />
    <glyph glyph-name="five" unicode="5" horiz-adv-x="970" 
d="M866 981q56 0 66 -20.5t10 -55.5t-16 -51q-66 -66 -94.5 -115t-28.5 -55l2 -8q0 -6 -7 -6q-22 0 -66 24t-44 47q0 24 19.5 44t76.5 61q-110 4 -256 4l-133 -2q-10 -23 -73 -129.5t-80 -167.5q118 41 306 41t252 -23.5t98 -63t34 -129.5t-51.5 -189t-129 -174.5t-171 -120
t-177.5 -44.5q-211 0 -268 109t-57 173q0 122 74 204t202 82t191 -51t63 -85t-25.5 -73t-52.5 -39q-6 0 -23 30.5t-97 59.5q-36 18 -98 18t-107 -54t-45 -117t44.5 -127t133.5 -64q29 0 64.5 -2t96.5 22t117 79t116.5 156.5t60.5 217.5q0 77 -130.5 93t-210.5 16t-133 -14.5
t-69 -14.5q-53 12 -69.5 45t-16.5 93t42 155q42 94 52 129t10 69l-2 25q0 6 28 6t72 -15t48 -56q396 63 452 63z" />
    <glyph glyph-name="six" unicode="6" horiz-adv-x="806" 
d="M768 296q0 -154 -105 -301t-313 -147q-134 0 -192 74t-64 92t-16 36q-27 50 -27 150q0 198 87 385t178.5 266t126 96.5t40.5 23.5q92 49 138 19t57.5 -58.5t11.5 -37.5t-23 -11.5t-45 -14.5t-61 -34.5t-218 -165t-179 -512.5q0 -196 76 -209t128 -13t139 61t87 249
q0 100 -41 141t-85 64q-44 22 -77 26t-33 14q0 25 32 85.5t102 60.5q38 0 106 -33q111 -66 140.5 -156t29.5 -150z" />
    <glyph glyph-name="seven" unicode="7" horiz-adv-x="954" 
d="M741 915q0 13 43 13q134 0 134 -86q0 -27 -11 -56h-2q-9 -34 -108.5 -259t-153.5 -361q150 0 150 43v5q0 5 2 5t8 -12t6 -42q0 -56 -64.5 -83.5t-144.5 -32.5q-63 -165 -63 -227q0 -20 8 -26.5t8 -9.5t-8 -3q-45 0 -65.5 40.5t-20.5 98.5t18 121q-57 -4 -89 -9.5
t-56 -29.5q-7 0 -25 34t-18 64q0 70 73 74v-2l29 2q12 0 123 -6q18 63 104 276q-169 -143 -329 -143q-121 0 -189.5 79t-68.5 182q0 184 114 314t230 130q47 0 68.5 -47.5t21.5 -80.5q0 -32 -10 -32l-21 4q-37 0 -90 -22.5t-137 -96t-84 -207.5q0 -62 39 -109.5t120 -47.5
q80 0 172.5 77.5t182.5 202.5q12 18 63.5 84t51.5 141q0 14 -5.5 25.5t-5.5 15.5z" />
    <glyph glyph-name="eight" unicode="8" horiz-adv-x="821" 
d="M150 209q0 -62 39.5 -121.5t75.5 -79.5t55.5 -27.5t32 -9.5t20.5 -1t16 -1q76 9 116.5 29.5t89.5 86.5q50 66 50 186t-72 182.5t-166 64.5t-175.5 -94t-81.5 -215zM467 559q137 27 137 162q0 70 -72.5 105.5t-140.5 -42.5q-33 -33 -33 -86q0 -82 32.5 -110.5t76.5 -28.5z
M752 214q0 -87 -31 -163t-105 -144.5t-166 -81.5l-36 -5q-16 0 -35 -1t-49 3t-79.5 28.5t-132.5 103t-83 230.5t100 246t209 125q-37 23 -62.5 73t-25.5 122t47.5 142.5t165.5 90.5h45q57 0 131 -66t74 -157t-52.5 -148t-109.5 -82q27 -14 53 -32q59 -33 100.5 -115
t41.5 -169z" />
    <glyph glyph-name="nine" unicode="9" horiz-adv-x="802" 
d="M752 636q0 -170 -64 -314t-120 -220.5t-103 -119.5t-80 -60.5t-61 -33.5t-61 -17q-50 0 -80.5 41t-30.5 63q0 10 22 12.5t52 19.5t119.5 68t215.5 283q86 157 86 337t-68.5 194t-95.5 14q-131 0 -203.5 -123.5t-72.5 -240.5q0 -29 6 -43q40 -140 104 -163.5t88.5 -23.5
t24.5 -9q0 -33 -33.5 -90.5t-97.5 -57.5q-31 0 -70 18v2q-67 25 -128.5 108.5t-61.5 217.5q0 218 108.5 323t185.5 137t124 32q93 -1 169.5 -52.5t98.5 -146.5q27 -68 27 -155z" />
    <glyph glyph-name="colon" unicode=":" horiz-adv-x="344" 
d="M184 500q-22 0 -37 14q-16 10 -32.5 28.5t-16.5 25.5t5.5 8.5t17.5 12.5t25.5 30.5t25.5 37t23.5 30.5t21.5 13t30.5 -12t20.5 -34t-7 -45t-16 -43.5t-16.5 -35t-7.5 -16.5q-15 -14 -37 -14zM134 156q-22 0 -38 14q-16 10 -32.5 29.5t-16.5 25.5t10.5 8t31 32t33.5 47.5
t24.5 30.5t21.5 13t30.5 -11t20.5 -33.5t-8 -46t-17.5 -44t-16.5 -35t-7 -16.5q-14 -14 -36 -14z" />
    <glyph glyph-name="semicolon" unicode=";" horiz-adv-x="344" 
d="M2 82q4 0 16 9t38.5 66.5t53.5 130t42 77.5q0 2 27.5 1.5t37.5 -8.5t7 -33.5t-11.5 -65.5t-38.5 -129t-43 -114v-2l-2 -4q-37 -25 -90 11t-45 59q4 2 8 2zM328 584q0 -6 -2 -9v-2q-4 -8 -31.5 -73.5t-61.5 -65.5q-16 0 -33.5 8.5t-15.5 12.5q-8 4 -4 14q-2 29 10.5 64.5
t12.5 70.5l-4 25q5 15 76 7q30 -3 41.5 -24.5t11.5 -27.5z" />
    <glyph glyph-name="less" unicode="&#x3c;" horiz-adv-x="530" 
d="M10 332q0 36 30 77.5t76 75t99 61t100 53.5t79 53.5t36 62.5q0 4 4 4q10 0 30.5 -31.5t20.5 -67.5t-42 -65t-105.5 -61.5t-135 -74.5t-132.5 -106q51 -39 114.5 -57t119.5 -34.5t94 -38t38 -58.5t-11 -63.5t-17 -26.5t-10 11q-5 11 -23.5 24.5t-40 22.5t-42 14.5
t-56.5 14.5t-81.5 34.5t-77.5 55.5t-49.5 57t-17.5 63z" />
    <glyph glyph-name="equal" unicode="=" horiz-adv-x="690" 
d="M627 367q6 6 11 -10.5t3 -65t-58.5 -60t-233.5 6.5t-273 -25q-14 -6 -16.5 -13t-6.5 -10q-2 0 -2 5q-16 35 8.5 64t63.5 49q64 32 268.5 35t235.5 24zM627 618q8 4 13 -12t0.5 -65.5t-62 -58.5t-232 8.5t-270.5 -25.5q-14 -6 -16.5 -13.5t-6.5 -9.5q-2 0 -2 4
q-16 35 8.5 64.5t63.5 49.5t114.5 27t154.5 9t144.5 5t90.5 17z" />
    <glyph glyph-name="greater" unicode="&#x3e;" horiz-adv-x="532" 
d="M134 35q-5 0 -16.5 26.5t-11.5 63.5t38 58.5t94.5 38t120 34.5t114.5 57q-61 63 -133 105.5t-135.5 75t-105.5 61.5t-42 66t20.5 67.5t31.5 30.5q4 0 4 -4q6 -57 83.5 -99.5t206.5 -109t129 -193.5q0 -41 -43 -77.5t-104 -71.5t-129 -66.5t-117 -58.5q0 -4 -5 -4z" />
    <glyph glyph-name="question" unicode="?" horiz-adv-x="858" 
d="M214 217q17 0 39.5 -10t25.5 -15t3 -29t-14 -71t-14 -90l4 -33q0 -12 -38 -12t-60 6q-37 0 -51.5 27.5t-14.5 42.5q10 39 37 87t46.5 72.5t36.5 24.5zM270 220.5q-20 0.5 -55.5 14t-9.5 27.5q47 77 69.5 116.5t36.5 61.5q27 18 89.5 52.5t172.5 208.5q146 232 146 384
q0 57 -31 98.5t-95 41.5q-123 0 -220 -125t-97 -254q0 -118 77 -190q30 -28 53.5 -36t23.5 -10q0 -24 -26.5 -61t-62.5 -37t-59.5 18.5t-38.5 32.5q-43 40 -81.5 110t-38.5 162q0 93 36 180t97 157.5t139.5 115.5t150.5 45q129 0 197 -85.5t68 -187.5t-36 -194t-85 -176
q-122 -210 -311 -323q-31 -53 -46 -80t-29 -47t-34 -19.5z" />
    <glyph glyph-name="at" unicode="@" horiz-adv-x="1335" 
d="M354 164q0 168 107 315t278 166q102 8 154.5 -24.5t52.5 -74.5t-30.5 -71t-34.5 -29t-28.5 31t-86.5 31t-114 -44t-107 -136.5t-60 -206.5q0 -42 8.5 -59t14.5 -17q91 0 174 195q4 4 11 37.5t35 102.5t89 69t103 -52q5 -6 6 -9q-15 -10 -72 -126t-71 -220
q-15 -104 -75.5 -171.5t-203.5 -67.5t-252 116t-109 306q0 96 39 214t114 220.5t184.5 172t231.5 69.5q223 0 351.5 -155.5t128.5 -374.5q0 -220 -76 -315t-114.5 -115.5t-54.5 -20.5q-27 0 -60 42t-33 65q0 -12 27.5 -2t89.5 86.5t69 289.5q5 137 -79.5 251t-223.5 118
q-104 0 -196 -49t-161 -130t-110 -183.5t-41 -192.5q0 -165 81.5 -263.5t209.5 -98.5q155 0 179 80.5t24 120.5t-8 49.5t-8 17.5q-117 -150 -215 -150q-69 0 -103.5 56.5t-34.5 136.5zM928 389v-1q0 2 0 1z" />
    <glyph glyph-name="A" unicode="A" 
d="M1092 -37q-82 -1 -82 141q0 64 47 205q-93 0 -191 8q-148 -158 -283.5 -248t-267.5 -94q-133 -4 -210.5 54.5t-77.5 206.5q0 202 120.5 317t211.5 155t161 40q136 0 229 -52t93 -133q0 -30 -36.5 -64t-51.5 -34q-10 0 -17 26.5t-61.5 58.5t-124.5 32
q-143 0 -280.5 -118.5t-137.5 -279.5q0 -91 43 -112t90 -21q172 0 453 281q-25 2 -29 2h-43q-35 -4 -74 -15q-18 0 -28 40t-10 62q0 52 110 52q55 0 168 -33q124 150 201.5 281t98 176t20.5 51l-7 31q0 12 18 12q52 0 96 -17.5t44 -64.5q0 -25 -10 -44q-15 -29 -115 -176.5
t-219 -287.5q37 -12 74 -22t59 -21q54 137 127 298.5t84 191.5l8 33l-6 34q0 11 20 11q128 0 128 -76q0 -23 -56.5 -141.5t-169.5 -362.5q12 0 13 -8q0 -10 -8.5 -16.5t-16.5 -6.5q-113 -240 -113 -313q0 -20 8.5 -26.5t8.5 -9.5t-2 -3h-6z" />
    <glyph glyph-name="B" unicode="B" horiz-adv-x="917" 
d="M578 485q52 15 77 33q-25 -12 -43 -17.5t-34 -15.5zM819 729q0 -74 -14 -111q50 -17 86.5 -58.5t36.5 -106.5q0 -117 -51.5 -218.5t-132 -175t-183 -115.5t-181.5 -42t-111 6q-89 17 -169 85.5t-80 212.5t83 196.5t147 64.5q33 80 76 168t43 93l-9 50q0 10 23 10
q127 0 127 -75q0 -29 -10 -55t-38 -79t-63 -124q90 -29 121 -63t31 -54q0 -36 -26.5 -76.5t-49.5 -40.5q-6 0 -20.5 18.5t-29.5 29.5t-30.5 25.5t-62.5 27.5q-92 -194 -92 -256q0 -18 9 -26.5t9 -11.5t-2 -3h-6q-44 0 -63 38.5t-19 102.5t27 149q-43 -20 -70 -70.5
t-24 -88.5q15 -187 195 -187q197 0 307 114t147.5 196.5t37.5 138.5t-17 71t-40 23q-76 -72 -170 -72q-35 0 -59.5 29.5t-24.5 47.5q0 37 55 76.5t175 39.5q18 0 23 4.5t5 26.5q0 71 -38.5 132.5t-111.5 61.5t-126 -10t-94 -23.5t-69 -28t-56 -30.5t-49 -44t-13 -28
q-12 0 -46 34t-34 62t15 51t41 43q50 38 141.5 71.5t165.5 33.5q73 0 130.5 -10t108 -39t85 -83t34.5 -128z" />
    <glyph glyph-name="C" unicode="C" horiz-adv-x="593" 
d="M644 987q144 0 144 -84q0 -43 -105 -204t-105 -234q0 -18 12 -29.5t12 -14.5t-10 -3q-30 0 -69.5 37.5t-39.5 96.5t49 173q10 10 -4 29.5t-55 17.5t-102.5 -52t-159.5 -189.5t-94 -317.5q2 -111 41 -169t104 -58q8 0 25 4q80 27 136 80t95 104t63.5 90t37.5 39t13 -18
t-9 -37t-17 -31t-64.5 -101t-152 -144.5t-155.5 -53.5t-105 36t-81 103t-36 188q0 118 42 236.5t108.5 217t148.5 161t164 62.5t103.5 -25t25.5 -27q6 16 16.5 37t10.5 39l-6 31q-1 10 19 10z" />
    <glyph glyph-name="D" unicode="D" horiz-adv-x="862" 
d="M215 66q0 -18 9 -26.5t9 -11.5t-2 -3h-6q-41 0 -61.5 38.5t-20.5 90.5q0 104 60 258q-50 -35 -85.5 -105.5t-35.5 -125.5t9 -76q66 -154 201 -154q89 0 175 65.5t203 237.5t149 438q0 106 -89 114.5t-170 8.5t-189 -29q114 0 114 -73q0 -29 -12 -55.5t-24 -55.5q2 0 2 -1
t2 -1q61 -16 82.5 -45t21.5 -46q0 -27 -14.5 -64t-32.5 -37q-68 43 -135 49q-160 -314 -160 -391zM291 764v-2q-54 -13 -89.5 -48.5t-43.5 -35.5q-21 0 -45.5 37.5t-24.5 68.5q0 99 178 136.5t264 37.5t159 -8t137 -40q120 -59 120 -205q0 -79 -46 -200q-102 -267 -261 -438
t-338 -171q-145 0 -233 129q-56 98 -56 182q0 146 72 250.5t199 138.5q35 76 48 103.5t13 42.5t-4 23.5t-4 12.5q-42 -14 -45 -14z" />
    <glyph glyph-name="E" unicode="E" horiz-adv-x="757" 
d="M6 250q0 314 395 381q-177 27 -221.5 47t-55.5 35t-11 29q0 26 12 71t35 45q10 0 36.5 -15.5t60.5 -15.5q133 0 222 31q174 44 248 93.5t86.5 49.5t42.5 -6t59 -23.5t29 -43.5t-13 -45q-13 -20 -106.5 -122.5t-93.5 -154.5q0 -12 10.5 -20t10.5 -10.5t-9 -2.5
q-77 19 -77 95q0 49 26 98q-41 -16 -95 -35.5t-105 -19.5q16 -10 39.5 -23.5t46 -29t39 -35t16.5 -57.5t-21.5 -58.5t-101.5 -20.5q-189 -16 -256.5 -50t-102 -84.5t-34.5 -124.5q0 -128 82.5 -198.5t180.5 -75.5q97 -5 161.5 49t64.5 169q0 47 -18.5 69.5t-42.5 22.5
t-42 -9t-31 -20.5t-22.5 -20.5t-17.5 -9q-17 0 -42 37.5t-25 57.5q0 40 36 76t109 36t116.5 -31t63 -67t19.5 -84q0 -129 -85 -234.5t-286 -95.5q-118 5 -225 99t-107 251z" />
    <glyph glyph-name="F" unicode="F" horiz-adv-x="661" 
d="M647 967q0 14 65 14t83 -49q313 0 398 14.5t116 31t41 32.5t19 16q20 0 41.5 -36.5t21.5 -58.5q0 -57 -66 -91q-110 -47 -274 -47q-85 0 -316 22q-4 -16 -11 -33.5t-15 -40.5l26 -2q51 0 68 17q4 0 12 -27t8 -55q0 -80 -67 -80q-25 0 -99 22q-215 -516 -215 -636
q0 -23 8.5 -30t8.5 -11.5t-16 -4.5q-37 0 -60 42.5t-23 104.5q0 63 16.5 136.5t40 147t52.5 147.5t53 145q-116 31 -148 31q-63 0 -71 -35q-6 0 -6 39q6 90 147 90q47 0 119 -14q4 16 10.5 31.5t10.5 27.5q-185 13 -223 13q-110 0 -195.5 -43t-85.5 -142t60.5 -121t82.5 -22
t38.5 13.5t30 28.5t23 28.5t22.5 13.5q29 0 62 -36.5t33 -68.5t-43.5 -78t-143.5 -46q-99 0 -178 67t-81 163q-4 175 160 252t468 81q0 16 -4 24.5t-4 12.5z" />
    <glyph glyph-name="G" unicode="G" horiz-adv-x="698" 
d="M600 999q144 0 143 -79q0 -41 -113.5 -218t-113.5 -249q0 -18 11.5 -28.5t11.5 -13.5t-2 -3h-7q-72 0 -82 62t-10 86q0 50 12 85.5t37 91.5q-111 -57 -233.5 -197.5t-122.5 -308.5q0 -95 54 -169t115 -74q98 0 175 74.5t129 164.5l-11 -1q1 -1 -11 -1h-148
q-109 0 -153.5 42.5t-44.5 75.5t6 47t9 15q-6 -6 16 -28.5t60 -22.5t76.5 5t75.5 10.5t70 10.5t69 5q70 0 70 -56t-41 -118q-32 -75 -93.5 -143t-125.5 -109t-132 -41q-125 0 -200.5 107t-75.5 224q0 116 46 225q79 185 209.5 292.5t222.5 144.5q37 16 63.5 30.5t26.5 30.5
t-4 16.5t-4 4.5q0 10 20 10zM251 401h1h-1z" />
    <glyph glyph-name="H" unicode="H" horiz-adv-x="1226" 
d="M1276 975q125 0 125 -74q0 -22 -36 -100t-74 -159t-91 -196q12 7 12 16t4 9q12 0 10 -45q-1 -45 -71 -78q-102 -228 -102 -297q0 -18 7 -25.5t7 -10.5t-8 -3q-41 0 -61.5 39t-20.5 99t35 172q-108 0 -195 10q-251 -438 -516 -438q-125 0 -196.5 81.5t-71.5 203.5
t42 218.5t109.5 168t151.5 113.5t165 42q137 0 196 -46t59 -79t-26 -70t-36 -37t-20 18.5t-30 26.5t-42 17.5t-78 9.5t-122 -31.5t-157 -124t-91 -270.5q0 -74 31.5 -124t87.5 -50q102 0 202.5 101.5t214.5 283.5h-14v-2q-20 0 -30.5 -9t-15.5 -9t-18.5 35.5t-13.5 66.5
q0 57 66 57q20 0 94 -8q85 185 105 288t20 121.5t-8.5 32t-8.5 19.5t27 12t55 6q88 0 88 -73q0 -84 -39 -177.5t-65.5 -148.5t-46.5 -100q91 -13 166 -21q135 333 172 411.5t37 82.5l-7 35q0 10 23 10z" />
    <glyph glyph-name="I" unicode="I" horiz-adv-x="686" 
d="M748 981q79 0 104 -39q96 4 116.5 12.5t27 17.5t12.5 19q2 8 8 8q13 0 40 -36.5t27 -60.5q0 -50 -36.5 -78.5t-103.5 -28.5q-68 0 -114 4q-23 -53 -143 -300t-174 -411q31 8 41 24.5t16 16.5q15 0 38.5 -39t23.5 -72t-26.5 -58.5t-86.5 -25.5t-109 14.5t-93 33t-82.5 36
t-65.5 19.5t-46.5 -6t-34.5 -18.5t-24.5 -18.5t-13.5 -8q-20 0 -24 22q0 14 5 18t17 17.5t52.5 39.5t103.5 26t119.5 -13.5t91.5 -13.5q9 148 82 316.5t96.5 224t46.5 106.5t39 90q-191 29 -255 29q-63 0 -105 -23.5t-67.5 -51.5t-37.5 -51.5t-20 -23.5q-23 0 -23 29
q0 13 4 21t10 22t31.5 48t77.5 63q88 65 311 65l115 -4l-6 27q0 12 35 12z" />
    <glyph glyph-name="J" unicode="J" horiz-adv-x="983" 
d="M585 -150.5q11 -27.5 20 -18.5q19 19 104 275q-73 0 -97 -62t-29 -92l-5 -30q-4 -45 7 -72.5zM928 156q0 -34 -16.5 -70.5t-26.5 -36.5l-43 23q-65 -139 -115 -213t-102 -74q-53 0 -86 58.5t-33 135.5q0 146 78 208.5t164 62.5q14 0 37.5 79t31.5 99
q-154 -181 -270 -268.5t-251 -87.5t-200 79.5t-65 185.5q0 105 33.5 182t86 134.5t114 90t101.5 32.5t57 -18.5t30.5 -48.5t13.5 -61t-10 -32l-17 2q-96 0 -205.5 -93.5t-109.5 -229.5q0 -102 55.5 -130t97.5 -28q83 0 189.5 91.5t263.5 305.5t179 271t22 88l-10 41
q0 10 16 11t39 3l51 -6q35 -10 61.5 -40t26.5 -77q-18 -68 -86.5 -264t-128.5 -344q0 -2 2 -2q25 -25 25 -59z" />
    <glyph glyph-name="K" unicode="K" horiz-adv-x="903" 
d="M378 393q-13 0 -13 -9t12 -13q0 -4 24 -23q1 2 7 17q-6 10 -11.5 19t-18.5 9zM908 909q50 0 91 -26.5t41 -61.5q0 -13 -8 -33t-24.5 -63t-61 -143t-134 -210t-198.5 -110q-59 0 -98 29q171 -171 219.5 -203.5t68 -36.5t38.5 -4l14 2q10 0 10 -11t-1 -29.5t-7 -39
t-19.5 -37t-50 -16.5t-125 62t-194.5 208q-57 -139 -57 -198q0 -18 7 -24.5t7 -10.5t-8 -4q-41 0 -61.5 39t-20.5 92.5t41 198.5q-2 2 -15.5 11t-40 32t-26.5 55q0 33 24.5 54.5t52.5 21.5t58 -29q31 72 63.5 149.5t62.5 146t50.5 119t27.5 64.5t7 23q-75 0 -194 -115.5
t-174 -237.5q-87 -196 -87 -342q0 -39 12.5 -81t22.5 -50t10 -11q0 -9 -66 -43t-100 27t-34 113q0 213 102 387q92 179 254 293.5t279 114.5q116 0 116 -82q0 -10 -5 -24.5t-10 -30.5t-26.5 -64.5t-54.5 -116t-69.5 -147.5t-73.5 -160q35 6 79 28t98 110q89 146 134 259
t45 142l-2 6q0 8 11 8z" />
    <glyph glyph-name="L" unicode="L" horiz-adv-x="475" 
d="M266 383q29 0 41 2t21 18q196 476 168 469q-37 -4 -93.5 -32.5t-149 -112.5t-99.5 -235q0 -109 112 -109zM283 -23q1 -10 33 -10q64 0 195 38.5t138 47.5q9 10 15 10q13 0 31 -40t18 -64q0 -25 -5.5 -40t-38.5 -30.5t-132 -15.5t-148 7t-99 28t-65.5 45t-15.5 78
q6 84 51 200q-83 0 -159 60.5t-76 165.5q7 157 95 261t203 155t187 51q129 0 129 -78q0 -34 -68.5 -178t-124.5 -262q25 -45 25 -73t-15.5 -48.5t-82.5 -42.5q-90 -189 -90 -265z" />
    <glyph glyph-name="M" unicode="M" horiz-adv-x="1314" 
d="M1378 969q0 15 64 10q86 -6 86 -76q0 -32 -15 -59q-12 -35 -101.5 -217.5t-155.5 -336t-66 -214.5q0 -18 8 -25.5t8 -10.5t-8 -3q-41 0 -62.5 38t-21.5 115t45 195q-118 -148 -175 -225.5t-65 -77.5q-7 0 -17.5 8t-10.5 25v6q0 19 11 146.5t16 189.5q-66 -86 -229 -287
t-400 -201q-129 0 -193.5 78.5t-64.5 185.5t33.5 185t85 137t113 94t102.5 35t58 -17.5t30.5 -49t13.5 -63.5t-10 -32l-17 2q-32 0 -59 -12v2q-97 -33 -176.5 -119t-79.5 -202q0 -59 38 -109.5t99 -50.5q100 0 205.5 91t262.5 309.5t180.5 280.5t23.5 84t-5 31t-5 15
q0 14 36 14q138 0 138 -82q0 -19 -17.5 -89.5t-34 -140t-36 -146t-35.5 -140.5q62 98 128 202.5t107 169t101.5 161.5t67.5 113t7 19z" />
    <glyph glyph-name="N" unicode="N" horiz-adv-x="1005" 
d="M1094 961q130 0 129 -78q0 -38 -39 -116.5t-182.5 -360t-143.5 -386.5q0 -18 7 -24t7 -9t-4 -3q-41 0 -63.5 36t-22.5 92t23.5 135t57.5 163t74 166.5t71 156.5q-215 -158 -314.5 -273.5t-126.5 -170.5q-123 -268 -123 -344q0 -20 8.5 -26.5t8.5 -10.5t-8 -4
q-41 0 -62.5 39t-21.5 76q0 73 36 193t63 187q28 66 58.5 135.5t56 128t55 124t21.5 65.5q-94 -13 -145 -44q-51 -32 -107.5 -88t-101.5 -129t-73.5 -157t-28.5 -172t19.5 -131t39.5 -73t40 -42t20 -16q0 -13 -42.5 -49.5t-69.5 -36.5q-60 0 -108.5 83.5t-48.5 214.5
q0 132 33 226t106.5 200.5t224 182.5t267.5 76t117 -76q0 -42 -41 -126.5t-82 -170.5q172 227 272 332t144 105z" />
    <glyph glyph-name="O" unicode="O" horiz-adv-x="823" 
d="M674 470q0 81 -10 136q-38 0 -119 26t-115 66q2 -8 2 -23q0 -53 -74 -93q-78 -44 -148.5 -125.5t-70.5 -247.5q0 -97 51 -176.5t145 -79.5q93 0 155.5 52t103.5 129t60.5 166t19.5 170zM537 821h-19q-18 0 -20 -10q0 -28 35 -61t110 -33q-12 45 -38.5 74.5t-67.5 29.5z
M362 -106q-110 0 -172.5 35.5t-116 113.5t-53.5 207q0 321 246 493q38 20 52 43t19 23t15 -6q-8 20 -8 56q0 66 65.5 95t123.5 29q102 0 177 -71.5t105 -178.5q36 12 119.5 59.5t132.5 82t66 67.5q2 4 16 -3t44 -35t30 -74q0 -45 -47 -85q-14 -10 -84.5 -65t-253.5 -74
l2 -55q0 -90 -31 -205t-92.5 -215t-153 -168.5t-201.5 -68.5z" />
    <glyph glyph-name="P" unicode="P" horiz-adv-x="894" 
d="M435 201q109 0 234 79.5t161 209.5t36 170q0 79 -65 122t-162 47v-23q0 -24 -7 -38l-81 -172q68 -41 96.5 -90t28.5 -81q0 -53 -54 -76t-82 -23t-28 12l4 53q0 31 -35 66q-31 -61 -60.5 -126t-58.5 -124q31 -6 73 -6zM259 433.5q-40 -48.5 -40 -101.5t33 -82l24 67
q18 41 38 86.5t38 92.5q-53 -14 -93 -62.5zM236 203q-80 54 -80 157t69 189t187 86q66 149 77 182q-138 -29 -216.5 -89.5t-95.5 -103t-18 -50t-9 -7.5q-23 0 -71 32.5t-48 78.5q0 14 19.5 49t43.5 59q189 188 477 189q76 -1 160 -19q168 -47 208 -133t40 -145
q-1 -58 -27 -142t-87.5 -163.5t-166.5 -152.5t-256 -73q-37 0 -100 11q-66 -159 -66 -213q0 -18 7.5 -24.5t7.5 -10.5t-8 -4q-41 0 -62.5 39t-21.5 97.5t37 160.5z" />
    <glyph glyph-name="Q" unicode="Q" horiz-adv-x="819" 
d="M162 212q0 -101 59.5 -177t133.5 -76q148 0 214 119q21 41 21 86q2 153 -214 153q-98 0 -210 -30q-4 -28 -4 -75zM290 455q327 0 380 -203q41 120 41 218t-18.5 151t-43 88.5t-49 56t-48.5 39.5t-55.5 40t-60.5 11q-6 -2 -2 18.5t31 66.5t72 46q22 0 58 -18.5t48 -30.5
q125 -75 165 -193.5t40 -222.5t-42 -219t-112.5 -206t-164 -146t-179.5 -55t-137 31.5t-107 106t-65 210.5q-47 -23 -64.5 -34t-21.5 -30q-2 -6 -14.5 5.5t-37 48t-24.5 62.5q0 25 5 38.5t29.5 31.5t143.5 56q30 134 113.5 232.5t136.5 125.5q82 54 113 54t52.5 -24
t35.5 -50.5t18 -48t-4 -17.5q-18 8 -44.5 -5t-55.5 -29q-139 -79 -205 -209q35 4 73 4z" />
    <glyph glyph-name="R" unicode="R" horiz-adv-x="780" 
d="M326 614q0 -25 -15 -59q-8 -27 -41.5 -89.5t-99.5 -190t-66 -195.5q0 -18 10.5 -28.5t10.5 -13.5t-8 -3q-37 0 -63.5 38t-26.5 79q0 102 19 145t73.5 165.5t62.5 174.5h-6q-29 0 -57.5 9t-28.5 46t39 93.5t156.5 147.5t328.5 91h62q61 0 128.5 -45t117.5 -140.5
t-37 -240.5q-64 -125 -167 -214t-229 -89l-61 4l-2 -25q0 -130 78.5 -229t185.5 -86q12 0 12 -12q0 -27 -49 -27q-167 0 -277 127t-110 272q0 41 20.5 64t20.5 20q16 12 27 -2q43 -43 89 -43q87 0 209 124.5t122 301.5q-5 48 -53 81.5t-134 33.5q-158 0 -290 -69t-132 -132
q0 -12 15 -12l45 6q121 0 121 -78z" />
    <glyph glyph-name="S" unicode="S" horiz-adv-x="974" 
d="M1001 895q-1 -11 -25 -59t-48.5 -94t-24.5 -58l4 -16q0 -4 -11 -4q-36 0 -77 15.5t-41 44.5q0 30 26.5 58.5t49.5 51.5q-51 -8 -147.5 -34t-194.5 -50q59 -8 142.5 -22t162 -68.5t108 -129.5t29.5 -161t-47 -168t-164.5 -173t-326.5 -91q-152 0 -268.5 81.5t-116.5 229.5
t128 235.5t284 87.5t240.5 -54t84.5 -97q0 -32 -29.5 -74.5t-44.5 -42.5q9 42 -80 85.5t-254 43.5q-102 0 -186 -57t-84 -137q0 -118 101.5 -147.5t179.5 -29.5q168 0 314 93t146 243q0 234 -415 234q-53 0 -92 -8.5t-48 -8.5q-16 0 -16 59t13.5 89.5t52.5 30.5l36 -5
q5 0 33 14q51 25 287 105.5t263 80.5q26 0 40 -25q6 -6 11 -31t5 -37z" />
    <glyph glyph-name="T" unicode="T" horiz-adv-x="626" 
d="M1430 933q0 -138 -343 -138q-99 0 -299 20q-15 -39 -108.5 -250t-153 -366.5t-59.5 -218.5q0 -20 7 -26.5t7 -9.5t-2 -3h-6q-62 0 -74 53t-12 80q0 142 108 404.5t140 350.5q-146 11 -204 11q-134 0 -222 -43t-88 -142q0 -69 44.5 -105t86.5 -36q43 0 60.5 13.5
t27.5 28.5t16 28.5t20 13.5q31 0 64 -35t33 -67t-42.5 -79.5t-143.5 -47.5q-100 0 -181 69t-81 163q0 177 166.5 252t478.5 79l-8 35q0 12 38 12q87 0 107 -45l125 -2q218 0 290 19.5t96 36t32 28.5t18 12q20 0 41 -36t21 -59z" />
    <glyph glyph-name="U" unicode="U" horiz-adv-x="827" 
d="M406 909q-84 0 -144.5 -78.5t-60.5 -182.5t41 -138q164 375 164 399zM895 971q0 15 63 10q86 -6 86 -76q0 -37 -38.5 -115.5t-182 -365.5t-143.5 -391q0 -18 7 -24.5t7 -9.5t-2 -3h-6q-39 0 -60.5 38t-21.5 91t21 119q-106 -136 -203.5 -188t-171.5 -52q-115 0 -115 116
t43 236q-115 72 -115 235q0 162 104.5 270t214.5 108t137.5 -32.5t27.5 -60.5q1 -28 -9 -50t-22 -51.5t-32.5 -71t-46 -94t-52.5 -107.5h2q37 14 49.5 34.5t20.5 20.5t34.5 -43t26.5 -75q0 -62 -39.5 -94t-150.5 -32l-29 2q-23 -51 -46.5 -106t-23.5 -90q0 -51 52 -51
q79 0 205.5 111t232.5 313q65 164 109 260q43 96 69 159l-2 2q6 14 6 27z" />
    <glyph glyph-name="V" unicode="V" horiz-adv-x="485" 
d="M559 962v12q0 13 -4 13q-29 -14 -45 -52.5t-16 -78.5t6 -55q6 14 32.5 71t26.5 90zM593.5 1026q104.5 0 104.5 -84q0 -46 -29.5 -111t-66.5 -147q18 -6 48 -6q60 0 93 47.5t33 80.5q0 32 -8 47t-18.5 24.5t-18.5 13.5t-8 12t14.5 22.5t45 31t53.5 16.5q54 0 82 -84
q10 -25 10 -62q0 -87 -71 -172.5t-183 -85.5q-44 0 -111 29q-235 -518 -235 -618q0 -16 7 -23.5t7 -13.5t-41 -6t-76 55t-60.5 139t-44 183.5t-29.5 188.5t-17 154t-7 89t-15.5 37.5t-14.5 22.5t34.5 23.5t73.5 14.5t54.5 -43t20.5 -131t11.5 -220.5t34.5 -310.5
q18 123 74.5 262.5t120.5 298.5q-29 55 -31 104.5t-2 83.5t30.5 86t135 52z" />
    <glyph glyph-name="W" unicode="W" horiz-adv-x="1013" 
d="M408 838q22 -16 22 -34t-30 -86t-64 -190q54 0 96 50q48 34 39 133q-9 98 -63 127zM1053 977q0 15 61 10q88 -7 88 -74q0 -27 -9 -52t-34.5 -84.5t-96.5 -217t-135.5 -320.5t-64.5 -231q0 -23 9.5 -28t9.5 -9t-7.5 -11t-21.5 -7t-57 13.5t-117.5 66t-110.5 219.5
q-78 -192 -78 -270q0 -23 8.5 -29t8.5 -10q0 -16 -29 -17h-9q-5 0 -13 2t-57 12.5t-111 84.5q-53 53 -82 150t-29 167t4 102q-78 39 -112.5 104.5t-34.5 117.5q0 88 32 122.5t50 34.5q34 0 79.5 -23.5t45.5 -51.5q0 -2 -8.5 -6.5t-27 -23t-18.5 -55.5t19 -67q34 137 76 209
q4 8 9 40t75 32q69 0 110 -53.5t41 -129.5q0 -2 1 -40t-15.5 -86t-59.5 -92t-133 -56q-12 -72 -12 -172t38 -171t101 -102q-24 31 -24 99q0 69 18.5 144t49 165t106.5 274.5t76 202.5t-4.5 27.5t-4.5 13.5q0 12 33 12q117 0 117 -55t-65.5 -213t-65.5 -334q0 -235 139 -309
q-27 35 -27 97q0 115 72 307q37 101 121 308.5t84 225.5z" />
    <glyph glyph-name="X" unicode="X" horiz-adv-x="806" 
d="M694 510q127 312 127 363t-11 65t-11 22t30.5 19.5t63.5 11.5q96 0 96 -86l-2 -22q0 -48 -94 -262.5t-127 -278.5t-37 -72l-8 -16q28 -214 78 -217l6 -6q0 -11 -30 -10t-47 13.5t-31.5 30t-24.5 39t-19 39.5q-162 -237 -366 -237q-128 0 -192 99t-64 236q0 136 86 261
t172 133q46 0 78 -50t32 -70q0 -21 -12 -21q-33 0 -75 -26t-106.5 -105t-64.5 -211q0 -78 44.5 -130.5t100.5 -52.5q98 0 165 82t153 256q-10 39 -41 195.5t-31 190.5t-14 45.5t-14 20.5t33.5 24.5t63.5 15.5t45.5 -9.5t25.5 -45.5t22 -234z" />
    <glyph glyph-name="Y" unicode="Y" horiz-adv-x="854" 
d="M458 -143q15 -27 22 -15q28 48 100 264q-58 0 -94.5 -66.5t-36.5 -102.5q-6 -53 9 -80zM573 246q19 4 33 4t24.5 19t33.5 89q-49 -68 -91 -112zM406 971q-92 0 -148.5 -81.5t-56.5 -181.5t41 -137q164 391 164 400zM823 924q0 12 37 12q137 0 137 -86q0 -34 -12 -55
q-6 -18 -27.5 -77t-72 -202t-113.5 -299q16 0 21.5 -28.5t5.5 -37.5q0 -20 -15.5 -61t-17.5 -41l-53 23q-83 -196 -138 -241.5t-91 -43.5t-71.5 53t-35.5 133t26 136q-78 -43 -145 -43t-96 33.5t-29 86.5q0 114 45 232q-115 80 -115 239t105 266t214 107t137 -32t28 -54
t-7.5 -44.5t-25.5 -63.5t-50 -106.5t-79 -164.5q35 10 49.5 31.5t21.5 21.5t34.5 -44t27.5 -75q0 -61 -39 -92.5t-151 -31.5l-29 2q-23 -51 -47.5 -106.5t-24.5 -90.5q0 -49 52 -49q83 0 219.5 125.5t244.5 347.5q33 101 62 180t29 97t-5.5 28.5t-5.5 14.5z" />
    <glyph glyph-name="Z" unicode="Z" horiz-adv-x="493" 
d="M351 856q98 41 208 87t210 46q99 0 124 -31.5t25 -45.5t-4.5 -14.5t-14.5 8.5t-28 9t-37 -4q4 -12 4 -34t-37 -64q-16 -25 -317.5 -322t-385.5 -438q41 -10 106.5 -40.5t209.5 -91t283 -60.5q201 0 250.5 78.5t49.5 89t8 10.5q7 -1 39 -19q68 -40 68 -90q0 -16 -22 -52
t-48 -56q-127 -96 -264 -96q-129 0 -243.5 50.5t-235.5 127.5q-57 31 -106.5 47t-86 30.5t-57 34t-20.5 60.5t15 75.5t40 66.5t55.5 63.5t64.5 71.5q104 123 193.5 222.5t225.5 255.5q-166 -78 -249 -117.5t-112 -39.5q-47 0 -64.5 35.5t-17.5 73.5t13 38l34 -6q26 0 124 41
z" />
    <glyph glyph-name="backslash" unicode="\" horiz-adv-x="438" 
d="M348 -272q-8 0 -8 3t7 9t7 32t-33.5 121t-85 214.5t-113 252t-152 326t-101 226.5t-10.5 55q0 23 20.5 44t45 33.5t43 14.5t13.5 -8t15 -66t29 -70q8 -27 40.5 -96t112 -239.5t165 -390.5t89.5 -345q-2 -39 -22.5 -77.5t-61.5 -38.5z" />
    <glyph glyph-name="underscore" unicode="_" horiz-adv-x="1384" 
d="M1294 -52q0 -44 -21 -72t-83 -28q-83 0 -344 11.5t-490 11.5q-286 0 -290.5 -22.5t-10.5 -22.5t-6 38q0 74 138 96t411 22l580 -5q89 0 104 15q12 0 12 -44z" />
    <glyph glyph-name="grave" unicode="`" horiz-adv-x="368" 
d="M113 850q0 -49 85 -104q36 -24 75 -35t47 -23t2 -18t-54 -10t-103 16q-56 20 -89 41t-28 60q5 38 29 60q23 23 29 19z" />
    <glyph glyph-name="a" unicode="a" horiz-adv-x="489" 
d="M94 27q-123 1 -123 193q0 85 40 164t106 153.5t192 83.5q92 0 137.5 -26t45.5 -67t-27 -62.5t-31 -21.5q-34 56 -93 55q-60 -1 -107.5 -41t-80 -95.5t-49 -115t-16.5 -107.5t18 -48q42 0 85 51t71 119q2 2 7 32t29.5 91t82.5 61q31 0 62.5 -23t31.5 -30q0 -6 -26 -32
t-64.5 -137.5t-38.5 -121.5t14 -10t52 20q39 20 61.5 36t33.5 26t16.5 15.5t11.5 5.5q6 -4 6 -11l-6 -14l-15 -22q-33 -52 -88 -85.5t-100 -33.5q-78 0 -78 98q-81 -100 -160 -100z" />
    <glyph glyph-name="b" unicode="b" horiz-adv-x="475" 
d="M334 478.5q0 13.5 -4 13.5q-23 0 -41.5 -38t-18.5 -79t25 -62q35 86 37 119t2 46.5zM450.5 587q24.5 -34 24.5 -109t-31 -156q37 16 44.5 23t17.5 7l12 -4q10 -8 10 -22q0 -48 -120 -82q-53 -96 -126 -153.5t-145 -57.5q-35 0 -53 8t-41 25l-2 -17l2 -8q0 -8 -16 -8
t-41 16.5t-25 76.5t80 259q23 62 85 215.5t79 190.5q4 16 0 30.5t-4 28.5q-1 14 27 14q132 0 132 -70q0 -37 -13 -62t-40 -78t-51 -99q48 64 133 66q37 0 61.5 -34zM68 127q0 -37 41 -37q80 0 159 164q-63 39 -63 127q0 57 14 99q-151 -310 -151 -353z" />
    <glyph glyph-name="c" unicode="c" horiz-adv-x="405" 
d="M428 207q-100 -182 -302 -182q-46 0 -78 26.5t-51.5 71.5t-13.5 123q11 156 104 266.5t196 110.5t133 -39t28 -75q-3 -57 -41.5 -82.5t-50.5 -25.5q-12 -1 -12 5t3 24t-5 45t-56.5 27t-106.5 -89.5t-66 -208.5q-9 -120 77 -120q54 0 120 40.5t93 80.5q15 18 19 18
q12 0 12 -10q0 -2 -1 -2t-1 -2v-2z" />
    <glyph glyph-name="d" unicode="d" horiz-adv-x="493" 
d="M86 139q0 -49 18 -49q48 4 96 54t64 85t28.5 67t36 90.5t23.5 80.5q0 29 -39 29t-81 -39t-74.5 -93.5t-52 -115t-19.5 -109.5zM522 864q121 0 121 -86q0 -24 -17 -56q-212 -405 -249 -504t-37 -110t25 -12t75 33t65 51t25 17q10 -1 9 -11q0 -10 -7.5 -15t-7.5 -13
l-16 -21q-86 -108 -168 -108q-37 0 -63.5 26.5t-26.5 67.5q-77 -96 -151 -96q-73 0 -101.5 52t-28.5 120q1 69 21 125q102 282 321 297q37 0 54.5 -3.5t40.5 -21.5q29 70 57.5 133.5t28.5 93.5q-9 22 -9 32q0 9 39 9z" />
    <glyph glyph-name="e" unicode="e" horiz-adv-x="436" 
d="M283 489q-18 0 -37 -15.5t-39 -31.5q-49 -49 -82 -133q51 0 120.5 51t73.5 99q4 30 -36 30zM444.5 229q8.5 0 8.5 -13t-9 -13q-106 -174 -307 -174q-171 0 -149 211q13 153 110.5 270t216.5 117q87 0 110 -54.5t19 -106.5q-8 -97 -98.5 -157.5t-179.5 -60.5q-33 0 -60 10
q-5 -19 -9 -73q-5 -54 24 -73.5t65 -19.5q63 0 138 38t93.5 68.5t27 30.5z" />
    <glyph glyph-name="f" unicode="f" horiz-adv-x="305" 
d="M174 292v27q0 27 -2 37q-14 -31 -86 -180.5t-72 -216.5q0 -10 4 -10q29 0 92.5 91.5t63.5 251.5zM331.5 908q49.5 -20 49.5 -62q0 -20 -29.5 -99t-109.5 -221q47 0 60 14.5t22 14.5q4 0 15 -19.5t11 -43.5t-19.5 -52t-68.5 -30h-14q27 -129 -14.5 -259.5t-118.5 -207.5
q-20 -20 -53 -49t-70 -29q-59 0 -70.5 22.5t-10.5 62.5t14.5 90t36 106.5t50 123t56.5 148.5q-23 4 -45.5 5t-39 4t-24.5 8t-3 25t14.5 32t24.5 18t40.5 7t68.5 3q12 39 70.5 182.5t58.5 182.5l-6 37q0 6 28 6q27 0 76.5 -20z" />
    <glyph glyph-name="g" unicode="g" horiz-adv-x="479" 
d="M131 31l37 -2q45 0 45 47q-39 -39 -82 -45zM-42 -47q-40 0 -40 -4q10 -27 52 -43.5t94 -16.5t96 52q-162 12 -202 12zM117 92q82 0 126 105t50 129q15 58 36.5 89t57.5 31q37 0 67.5 -22.5t30.5 -31.5t-12.5 -17t-26.5 -39t-31.5 -69t-38 -84t-40 -89t-25.5 -63
q171 0 199 14q2 2 8 2t11.5 -20.5t5.5 -46.5t-23 -49t-82 -23q-12 0 -164 20q-2 -2 -6 -10q-29 -53 -83 -82t-100 -29q-80 0 -138 46.5t-58 95.5q0 84 146 84q18 0 32.5 -1t20.5 -1q-100 30 -100 166q0 108 54 217t133 155.5t152 51.5q98 0 140.5 -27t42.5 -66t-28 -61.5
t-31 -22.5t-23 28t-75 28q-56 0 -102 -39t-78 -92.5t-49.5 -113t-18.5 -111.5t20 -52z" />
    <glyph glyph-name="h" unicode="h" horiz-adv-x="473" 
d="M514 197q20 0 14 -13q0 -6 -5 -12t-15 -20q-45 -63 -117 -99q-27 -18 -55 -21q-68 -7 -96 34q-10 14 -13 32v8q-15 51 77 291q22 57 34 95q2 20 -16 4q-94 -83 -191 -220q-37 -51 -59 -100q-37 -104 -36 -122q1 -17 -8 -19q-10 -2 -22 3q-65 26 -22 182q24 95 112 316
t102 268q13 46 8 56q-9 17 38 10q54 -5 76 -29q43 -46 10 -114q-6 -12 -22 -42t-36 -72t-46 -93t-50 -104q149 194 205 194q62 6 96 -13q33 -19 44 -44t-4 -55t-43 -80q-28 -49 -83 -152t-59 -166q7 -22 83 20q75 41 95 75q2 0 4 2z" />
    <glyph glyph-name="i" unicode="i" horiz-adv-x="225" 
d="M76 587.5q0 12.5 36 12.5q142 0 142 -78q0 -27 -89.5 -179t-101.5 -245q3 -6 17 -6q35 0 150 88l22 17q10 0 10 -13q-2 -2 -4 -6t-5 -9q-23 -39 -79 -88.5t-133 -49.5q-29 0 -56.5 21.5t-27.5 61.5t15.5 94t36 112.5t41 112.5t31.5 88t3 44t-8 22.5zM238 600
q-33 0 -54.5 11.5t-21.5 15.5q-6 1 -6 27t14 73t14 90l-6 31q0 14 38 14t70 -7t44 -31.5t12 -37.5v-8q-71 -178 -104 -178z" />
    <glyph glyph-name="j" unicode="j" horiz-adv-x="219" 
d="M25 31h2l-2 2v-2zM-227 -111q63 0 104 52l-201 12q-16 0 -16 -4q10 -27 44 -43.5t69 -16.5zM231 47q19 0 19 -45t-21.5 -69.5t-83.5 -24.5q-9 0 -163 20q-2 -2 -7 -10q-29 -53 -82 -82t-98 -29q-80 0 -138 45.5t-58 92.5q0 90 178 90l141 -4q13 55 90.5 273t77.5 251
l-4 23q-4 22 32 22q142 0 142 -78q0 -27 -90.5 -180.5t-99.5 -243.5q2 -6 16 -6t43 16.5t56.5 36t49 36t25.5 16.5q17 -8 0 -25q-28 -55 -87.5 -94t-96.5 -45q61 0 159 14zM233 600q-53 0 -59 17t-6 37t14.5 69t14.5 77t-4.5 36t-4.5 12q0 14 48 14t69 -10q47 -12 47 -74
q-71 -178 -119 -178z" />
    <glyph glyph-name="k" unicode="k" horiz-adv-x="493" 
d="M150 254q28 0 62 24.5t72 75t54 123.5q0 10 -2 20.5t-12 4.5l-21 -20q-104 -99 -188 -226q7 -2 35 -2zM385 610q44 0 90.5 -29.5t46.5 -72.5t-78 -133t-184 -135q36 -27 127.5 -106t127.5 -103q74 -50 134 -11q0 -45 -33.5 -98t-89.5 -53q-75 0 -215 178t-217 178
q-37 -59 -53 -125.5t-23 -66.5q-16 0 -36.5 18.5t-20.5 52.5q0 108 74 281q111 341 162 453q4 10 4 28l-6 37q0 8 27.5 8t77.5 -19t50 -59t-178 -419q143 196 213 196z" />
    <glyph glyph-name="l" unicode="l" horiz-adv-x="206" 
d="M229 932q0 6 14 6t34 -4q52 -10 83 -26t31 -46q0 -29 -13 -54t-37 -71.5t-141.5 -272.5t-148.5 -347q0 -21 24 -21t74 34t67.5 50.5t25.5 16.5q8 -1 8 -11t-7 -14t-7 -12q-2 -2 -17.5 -22.5t-62 -63.5t-98.5 -43t-74.5 28.5t-22.5 58.5q0 42 34.5 153t88 236.5t74 177.5
t48 121t27.5 76z" />
    <glyph glyph-name="m" unicode="m" horiz-adv-x="770" 
d="M381 610q145 0 145 -73q0 -24 -55 -129q27 35 53.5 70.5t67.5 81.5t108 46t90 -28t23 -48t-9 -40t-91.5 -164.5t-91.5 -227.5q2 -6 16 -6t43 16.5t57.5 36t50 36t25.5 16.5q14 -9 -2 -25q-18 -37 -77 -89t-136 -52q-29 0 -56.5 21.5t-27.5 59.5t26 132t57 167
q30 73 30 81t-5 8q-4 0 -20 -14q-81 -76 -176.5 -208t-95.5 -229q0 -10 -3 -13t-22 -3t-41 14t-22 47t10 82t23.5 104.5t30 108.5t23.5 75t7 29t-5 7t-21 -14q-73 -68 -183.5 -202t-120.5 -227l2 -14q0 -10 -14 -6q-18 0 -42 16.5t-20 50.5q11 96 130 375q34 80 35 94
t-2 20.5t-3 10.5q0 14 34 14t55.5 -5t40 -15t29.5 -26.5t9 -37t-19.5 -46t-52.5 -85.5q31 33 57.5 70t65 87t70.5 50z" />
    <glyph glyph-name="n" unicode="n" horiz-adv-x="477" 
d="M230 587q53 -27 28 -71.5t-53 -89.5q31 33 53.5 65.5t57 73.5t81.5 41q81 0 103 -28t22 -48t-9 -40t-91 -165.5t-90 -226.5q0 -6 14 -6t43 16.5t57.5 36t50 36t25.5 16.5q6 -4 6 -13q-21 -42 -83.5 -97.5t-135.5 -55.5q-29 0 -57.5 22.5t-28.5 59.5t26 131t57 167
q30 73 30 81t-5 8t-19 -14q-77 -72 -180.5 -204t-111.5 -229q-2 -10 -4 -15t-14 -4q-29 2 -49.5 18.5t-17.5 47.5q13 112 127 387q28 67 32 88l-6 25q0 14 45 14q44 0 97 -27z" />
    <glyph glyph-name="o" unicode="o" horiz-adv-x="497" 
d="M358 432q-45 -10 -51 -82q0 -40 19 -63q10 29 23 60t14 55t-5 30zM547 298q27 26 33 26t6 -18t-50.5 -55.5t-119.5 -47.5q-55 -98 -128 -137t-140 -39t-113.5 54t-41.5 170t64.5 208t103 128t73.5 36t45.5 -10.5t25.5 -25t14.5 -27.5t4.5 -21.5t-28 -14.5t-63.5 -45
t-73 -114t-43.5 -175q-5 -100 51 -100t126 123q-25 12 -47.5 44t-19.5 77q6 86 48.5 150.5t122.5 64.5t80 -131q-4 -63 -39 -160q82 14 109 40z" />
    <glyph glyph-name="p" unicode="p" horiz-adv-x="501" 
d="M260 404q0 -22 7 -48.5t42 -42.5q40 81 36.5 128.5t-21.5 58.5q-35 0 -49.5 -37t-14.5 -59zM119 88q72 0 111.5 70.5t52.5 93.5q-57 11 -79 45.5t-22 62.5q-27 -49 -39 -77q-12 -29 -37.5 -78.5t-25.5 -77.5q0 -39 39 -39zM541 361q0 -10 -23.5 -37t-71.5 -50
q-53 -109 -129.5 -176t-153.5 -67t-114 39q-92 -212 -92 -275q4 -14 -16 -14q-23 0 -44.5 18.5t-21.5 73.5t42 175t61.5 174t42 113.5t53 138t30.5 93.5l-8 39q0 10 16.5 11t43.5 1t62.5 -15t37.5 -56q69 78 150 78q88 0 88 -150q0 -70 -23 -137q29 12 41 24.5t20 10.5
t9 -12z" />
    <glyph glyph-name="q" unicode="q" horiz-adv-x="509" 
d="M356 486q0 16 -59 16q-63 0 -117.5 -91.5t-54.5 -201.5q0 -59 23.5 -91t84.5 -32l123 334v66zM520 225q10 0 10 -6t-1 -6t-1 -2v-2q-53 -90 -178 -146q-90 -219 -90 -270q0 -12 -18 -12t-40 18.5t-22 73.5t35 158q-10 -2 -13 -2h-26q-188 0 -188 217q0 159 91.5 268
t211.5 109q73 0 110 -23q-2 2 -2 10q1 8 45 8q118 0 117 -75q0 -18 -69.5 -167t-114.5 -253q39 20 143 102z" />
    <glyph glyph-name="r" unicode="r" horiz-adv-x="438" 
d="M166 702q0 29 -19 29q-12 0 -23 -16.5t-11 -51.5t39 -53q14 63 14 92zM453 536q-1 -22 -11 -47t-90.5 -164t-89.5 -227q0 -6 20 -6t52.5 16.5t57 36t41 36t20.5 16.5q6 -4 6 -13q-21 -41 -58 -77q-81 -78 -163 -78q-27 0 -54.5 20.5t-27.5 54.5q0 41 51 198.5t51 173.5
q0 17 -10 18q-22 0 -45 -5q-89 -229 -137 -296.5t-65 -67.5t-17 14t16 32q73 80 129 329q-88 43 -88 153q0 79 50 142t128 63q64 0 64 -84q0 -43 -14.5 -91t-26.5 -91q86 0 145 18q35 0 50.5 -26t15.5 -48z" />
    <glyph glyph-name="s" unicode="s" horiz-adv-x="448" 
d="M8 150q22 -56 85 -56q62 0 112.5 69t50.5 146q0 78 -27 146q-207 -300 -221 -305zM49 293q-49 -27 -49 -96q10 20 23.5 43.5t25.5 52.5zM283 528q106 -172 106 -256q0 -94 -64 -168.5t-172 -74.5t-154 55t-46 106q0 77 40.5 110.5t74.5 33.5q59 126 79 193q19 67 29 97.5
t10 61.5l-6 35q4 25 79 -0.5t75 -74.5q0 -35 -22.5 -73.5t-28.5 -44.5z" />
    <glyph glyph-name="t" unicode="t" horiz-adv-x="204" 
d="M70 96q35 0 84 34t62.5 50.5t23.5 16.5q10 -1 10 -13t-14 -26l-16 -21q-81 -108 -171 -108q-41 0 -64.5 28.5t-23.5 70.5t15.5 96.5t41 123t61.5 152.5t79 188q-209 10 -209 39q0 24 95 28.5t144 6.5q15 22 15 59l-4 31q0 6 11 6q44 0 93 -21t49 -73q231 0 243.5 5
t22.5 5t11 -34q0 -34 -1 -42t-16.5 -13t-110.5 -5q-94 0 -184 4q-230 -430 -264 -569q1 -19 17 -19z" />
    <glyph glyph-name="u" unicode="u" horiz-adv-x="501" 
d="M535 197q11 -7 2 -20q-103 -148 -218 -148q-35 0 -57 28.5t-22 81.5q-24 -32 -61.5 -60t-66 -39t-61.5 -11t-57.5 26.5t-23.5 71.5t20.5 113.5t43 136t43 120t19.5 62.5l-8 29q0 4 11.5 10t34.5 6q53 0 90.5 -21.5t37.5 -48.5q0 -28 -9 -49t-92 -161.5t-87 -225.5
q0 -6 18 -6t76.5 35t81.5 63q20 85 55 181t48.5 136t13.5 52t-4.5 17.5t-4.5 10.5q0 17 35 17q59 0 99 -20.5t40 -54.5t-90.5 -190.5t-99.5 -240.5q2 -6 22 -6t51 16.5t57 36t42.5 36t20.5 16.5z" />
    <glyph glyph-name="v" unicode="v" horiz-adv-x="509" 
d="M371 609q0 46 -21 46q-10 0 -20.5 -17t-10.5 -46q0 -61 41 -90q11 61 11 107zM254 575q0 76 48.5 139.5t127.5 63.5q25 0 44.5 -16t19.5 -50v-47q0 -47 -58 -186q44 5 74 25q6 4 14 -12t8 -42t-17 -48.5t-54 -22.5t-64 10q-169 -358 -344 -358q-29 0 -57.5 23.5
t-28.5 73.5q0 112 90 393l17 48l-8 25q0 14 29 14q54 0 98.5 -21.5t44.5 -62.5q0 -18 -80.5 -176t-85.5 -248q0 -8 16 -8t53 25q138 87 199 295q-86 55 -86 163z" />
    <glyph glyph-name="w" unicode="w" horiz-adv-x="729" 
d="M545 631q0 -69 51 -96q2 16 2 19v14l-2 57l-23 63q-10 0 -19 -16.5t-9 -40.5zM645 817q66 0 66 -99q0 -57 -5.5 -78.5t-13.5 -49t-20 -70.5q38 4 71 31q10 2 19.5 -16.5t9.5 -46.5t-22.5 -48t-55.5 -20t-53 4q-58 -160 -138 -277.5t-168 -117.5q-97 0 -97 123
q-77 -123 -172 -123q-33 0 -61 25.5t-28 79.5q0 114 56 383l10 46q0 16 -5 21.5t-5 11.5t11.5 13t35.5 7q50 0 89.5 -19t39.5 -49q0 -29 -61.5 -186.5t-61.5 -255.5q0 -14 9 -14q19 0 72 43t75 72q11 103 36 226t25 135q0 11 -5 16.5t-5 11.5t11.5 13t35.5 7q52 0 90.5 -19
t38.5 -49q0 -29 -61.5 -186.5t-61.5 -255.5q0 -14 8 -14q63 16 122.5 99.5t79 149t28.5 103.5q-53 25 -78 74.5t-25 93.5q0 83 46 144t118 61z" />
    <glyph glyph-name="x" unicode="x" horiz-adv-x="434" 
d="M473 168v-2q0 -2 -12 -24.5t-51 -70.5t-111 -48q-33 0 -63.5 45t-43 71.5t-20.5 40.5q-18 -25 -36.5 -49.5t-32 -46t-21.5 -37.5t-8 -28t-42 18.5t-42 56.5q0 27 38 82t87 121q-95 158 -95 231q0 45 49 63.5t79 18.5t30 -8l-8 -27q0 -75 31 -163q80 105 80 153
q0 12 -4.5 17.5t-4.5 10.5q0 17 32 17q56 0 95 -17t39 -51t-47 -96.5t-139 -177.5l26 -89q27 -89 52 -93q50 0 90.5 53.5t38.5 53.5l4 2q6 0 6 2t4 2l8 -13q-8 -16 -8 -18z" />
    <glyph glyph-name="y" unicode="y" horiz-adv-x="491" 
d="M59 31h138q2 6 2 12t4 17l8 22q8 22 12 39q-29 -29 -66.5 -59.5t-97.5 -30.5zM-34 -47q-29 0 -29 -4q10 -27 43.5 -43.5t68.5 -16.5q63 0 105 52q-159 12 -188 12zM98 562l-8 25q0 17 34 17q63 0 100.5 -21.5t37.5 -48.5q0 -28 -9 -49t-89 -157t-90 -230q0 -6 11 -6
q20 0 86 38t77 65q15 62 66 206t51 158t-4.5 18.5t-4.5 9.5q0 17 34 17q63 0 100.5 -21.5t37.5 -48.5q0 -28 -42 -107t-72.5 -139.5t-59.5 -117.5q-24 -60 -51 -139q207 0 207 16q18 0 18 -46t-22.5 -69.5t-81.5 -23.5q-12 0 -164 20q-29 -59 -84.5 -90t-103.5 -31
q-82 0 -139.5 46.5t-57.5 89.5t25.5 60t56.5 22.5t58.5 4.5t31.5 1q-29 2 -53.5 26.5t-23.5 69.5t21.5 114.5t44 137t43 120t19.5 63.5z" />
    <glyph glyph-name="z" unicode="z" horiz-adv-x="417" 
d="M-128 -47q-27 0 -28 -4q10 -29 44 -45.5t80 -16.5t93 52q-2 2 -82 8t-107 6zM133 729q-12 0 -23.5 -16.5t-11.5 -52.5t39 -54l15 88q0 35 -19 35zM432 197q10 -5 10 -13t-6 -14l-13 -19q-33 -48 -80.5 -80t-90.5 -40q25 2 32 2h68q29 0 44.5 6t19.5 6q16 0 16 -44
t-20.5 -68.5t-81.5 -24.5q-12 0 -164 20q-29 -59 -82.5 -90t-103.5 -31q-84 0 -140.5 47t-56.5 95q0 82 143 82h14l48 -1l114 -1q2 6 3 13.5t7 21.5q13 35 49.5 155.5t41.5 120.5q41 132 41 140q0 9 -6 9l-50 -2q-16 -41 -76.5 -198.5t-105.5 -157.5q-14 1 -14 15t8 24
q53 63 74.5 150.5t40.5 177.5q-88 43 -88 153q0 78 49.5 140.5t126.5 62.5q65 0 65 -84q0 -62 -41 -180q37 0 76 9t63 9t48 -18.5t24 -53.5t-12 -51q-8 -23 -89.5 -161.5t-90.5 -225.5q2 -6 15 -6t42 16.5t56.5 36t49 36t23.5 16.5z" />
    <glyph glyph-name="braceleft" unicode="{" horiz-adv-x="718" 
d="M60 273.5q44 105.5 166 318.5t162 332.5t40 146.5t-8 47.5t-8 34.5t28 22.5t48 8.5q44 0 79 -30t35 -112q0 -83 -94 -267.5t-199.5 -317.5t-168 -223t-62.5 -216q0 -63 56 -117.5t116 -54.5q103 0 132.5 56.5t29.5 93.5t-20.5 57.5t-20.5 33.5q0 28 50 44t68 16
q43 0 72 -32t29 -93q0 -115 -81.5 -212t-218.5 -97q-136 0 -203 95t-67 186q-4 20 -4 97t44 182.5z" />
    <glyph glyph-name="braceright" unicode="}" horiz-adv-x="1058" 
d="M776.5 1068.5q63.5 129.5 129.5 129.5t94 -34t28 -43t-28 -33t-38 -46q-68 -146 -96 -530q-16 -225 -60 -401.5t-140 -276.5q-96 -129 -240 -129q-117 0 -195.5 92.5t-78.5 212.5q0 102 72 180q45 49 86 49.5t78.5 -41.5t37.5 -83q0 -12 -16.5 -18.5t-53.5 -26.5t-37 -81
q0 -62 38.5 -118.5t121.5 -56.5q82 0 132.5 49t79 145t28.5 365l-6 286q0 280 63.5 409.5z" />
    <glyph glyph-name="exclamdown" unicode="&#xa1;" horiz-adv-x="540" 
d="M420 1024q-20 -82 -83 -160q-19 -24 -37 -24t-40 10t-25 15q-14 23 6 85q19 62 19 105l-4 32q0 13 38 13t60 -6q38 0 52 -28t14 -42zM-68 -260q0 -8 -18 -8t-47 19q-57 36 -57 76t41 126t82 175q43 90 91 192q182 384 181 485q0 16 -7 22t-8 11q0 2 9 2q41 0 61 -39
t23 -78q-7 -234 -270 -770q-40 -81 -46 -99q-6 -19 -14 -41q-9 -21 -15 -43t-6 -30z" />
    <glyph glyph-name="cent" unicode="&#xa2;" horiz-adv-x="651" 
d="M144.5 432q-31.5 -109 -31.5 -171t26 -107q40 159 90 298.5t70 196.5q-123 -108 -154.5 -217zM121 72q-88 62 -88 252q0 54 28.5 140.5t103 203.5t191.5 141q16 51 23 68q4 0 16.5 34.5t12.5 75.5q0 4 12 4t40.5 -18.5t28.5 -35.5t-1 -21.5t-5 -14.5t-13 -31.5t-24 -66.5
q22 -10 41 -29q4 10 12.5 26.5t8.5 30.5l-4 25q0 6 16 6q109 0 109 -63q0 -10 -3.5 -19.5t-9.5 -25.5t-30.5 -54t-71.5 -115t-47 -108q0 -30 9 -38.5t9 -10.5t-7 -2q-25 0 -55 28.5t-30 75.5t39 132q-4 4 -10 11t-16 13q-136 -358 -203 -590q6 -2 22 -2l19 2
q119 39 180.5 140.5t73.5 101.5t12 -14t-8 -28t-12 -20q-34 -62 -109 -148.5t-170 -86.5q-16 0 -25 2q-22 -73 -22 -95t10 -32l-6 -2q-29 0 -42 28.5t-13 59.5t8 70z" />
    <glyph glyph-name="dieresis" unicode="&#xa8;" horiz-adv-x="325" 
d="M243.5 864q10.5 0 16.5 -6q15 -4 27 -20t11 -20t-5 -7.5t-12 -16.5q-13 -22 -33.5 -71t-36.5 -57q-16 0 -31.5 8t-7.5 57t17.5 77t17.5 40t17 14t19.5 2zM119 864q10 0 16 -6q15 -4 27 -20t11 -20t-5 -7.5t-12 -16.5q-13 -22 -33.5 -71t-36.5 -57q-16 0 -31.5 8t-7.5 57
t17.5 77t17.5 40t17.5 14t19.5 2z" />
    <glyph glyph-name="acute" unicode="&#xb4;" horiz-adv-x="368" 
d="M256 850l6 6q6 4 28 -18t28 -50t-6 -49t-84 -52t-148 -25q-49 3 -36 21q5 7 30 22q137 40 176 124q6 17 6 21z" />
    <glyph glyph-name="questiondown" unicode="&#xbf;" horiz-adv-x="774" 
d="M371 898q0 24 14 71t14 90l-4 33q-1 12 37 12t62 -6q37 0 51 -28t14 -42q-21 -80 -83 -160q-20 -24 -36 -24q-18 0 -40 10t-26 15q-3 5 -3 29zM60 -164q121 0 223 127q43 55 68 123q26 68 26 136q1 68 -25 116q-26 47 -53 65q-29 29 -53 37t-23 11q0 23 26 61t63 37
q36 -1 60 -19q23 -18 49 -42t53 -70q56 -98 56 -191q0 -186 -133 -339q-61 -72 -140 -116t-151 -44q-128 0 -195 84t-68 187t35 195q133 342 396 500q31 54 46 80t34 51t70 7t25 -33q-47 -77 -69 -117q-23 -39 -38 -61q-28 -17 -52 -31q-96 -53 -233 -266q-57 -92 -90 -185
q-63 -178 -1 -262q30 -41 94 -41z" />
    <glyph glyph-name="Agrave" unicode="&#xc0;" 
d="M133 184q-1 -133 133 -133q172 0 453 281q-25 2 -43 2h-29q-35 -4 -74 -15q-19 0 -34 64q-4 16 -4 38q0 52 110 52q55 0 168 -33q112 135 213 302t107 206l-7 31q0 12 18 12q87 0 124 -39q16 -16 16 -42t-12 -49t-112 -171t-220 -289q37 -12 74 -22t59 -21
q44 112 124 291q80 180 87 199l8 33l-6 34q0 11 23 11q122 0 125 -76q0 -24 -56 -142t-170 -362q12 0 13 -8q0 -20 -25 -23q-113 -240 -113 -313q1 -20 9 -26t8 -10q0 -3 -2 -3h-6q-42 0 -62 39t-20 101t47 206q-91 0 -191 8q-141 -151 -237 -215q-182 -123 -314 -127
q-133 -3 -211 55t-77 206q0 203 168 362q73 70 163 110t161 40q208 0 296 -108q27 -34 27 -64t-19 -57q-19 -26 -42 -40t-30 -14t-13 20q-8 31 -61 63t-124 33q-143 2 -282 -117q-138 -120 -138 -280zM1270 1260q0 -22 24 -52q51 -63 158 -94q40 -20 26 -35t-76 -8
q-60 7 -98 21q-106 38 -100 90q6 41 29 64q24 23 31 20z" />
    <glyph glyph-name="Aacute" unicode="&#xc1;" 
d="M133 184q-1 -133 133 -133q172 0 453 281q-25 2 -43 2h-29q-35 -4 -74 -15q-19 0 -34 64q-4 16 -4 38q0 52 110 52q55 0 168 -33q112 135 213 302t107 206l-7 31q0 12 18 12q87 0 124 -39q16 -16 16 -42t-12 -49t-112 -171t-220 -289q37 -12 74 -22t59 -21
q44 112 124 291q80 180 87 199l8 33l-6 34q0 11 23 11q122 0 125 -76q0 -24 -56 -142t-170 -362q12 0 13 -8q0 -20 -25 -23q-113 -240 -113 -313q1 -20 9 -26t8 -10q0 -3 -2 -3h-6q-42 0 -62 39t-20 101t47 206q-91 0 -191 8q-141 -151 -237 -215q-182 -123 -314 -127
q-133 -3 -211 55t-77 206q0 203 168 362q73 70 163 110t161 40q208 0 296 -108q27 -34 27 -64t-19 -57q-19 -26 -42 -40t-30 -14t-13 20q-8 31 -61 63t-124 33q-143 2 -282 -117q-138 -120 -138 -280zM1415 1260l6 6q7 4 25 -14t29 -47q11 -28 -2 -53q-14 -25 -87 -56
t-147 -25q-48 3 -36 22q7 9 30 21q139 41 176 125q6 17 6 21z" />
    <glyph glyph-name="Acircumflex" unicode="&#xc2;" 
d="M133 184q-1 -133 133 -133q172 0 453 281q-25 2 -43 2h-29q-35 -4 -74 -15q-19 0 -34 64q-4 16 -4 38q0 52 110 52q55 0 168 -33q112 135 213 302t107 206l-7 31q0 12 18 12q87 0 124 -39q16 -16 16 -42t-12 -49t-112 -171t-220 -289q37 -12 74 -22t59 -21
q44 112 124 291q80 180 87 199l8 33l-6 34q0 11 23 11q122 0 125 -76q0 -24 -56 -142t-170 -362q12 0 13 -8q0 -20 -25 -23q-113 -240 -113 -313q1 -20 9 -26t8 -10q0 -3 -2 -3h-6q-42 0 -62 39t-20 101t47 206q-91 0 -191 8q-141 -151 -237 -215q-182 -123 -314 -127
q-133 -3 -211 55t-77 206q0 203 168 362q73 70 163 110t161 40q208 0 296 -108q27 -34 27 -64t-19 -57q-19 -26 -42 -40t-30 -14t-13 20q-8 31 -61 63t-124 33q-143 2 -282 -117q-138 -120 -138 -280zM1180 1169q12 0 22 5q49 6 94 34v2q20 20 40 24q40 9 44 -42t107 -119
q4 -6 16 -23t-7 -20q-39 -8 -88 24t-85 70q-51 -20 -123 -9q-72 12 -74 30q-2 10 12 15t19 9h23z" />
    <glyph glyph-name="Atilde" unicode="&#xc3;" 
d="M133 184q-1 -133 133 -133q172 0 453 281q-25 2 -43 2h-29q-35 -4 -74 -15q-19 0 -34 64q-4 16 -4 38q0 52 110 52q55 0 168 -33q112 135 213 302t107 206l-7 31q0 12 18 12q87 0 124 -39q16 -16 16 -42t-12 -49t-112 -171t-220 -289q37 -12 74 -22t59 -21
q44 112 124 291q80 180 87 199l8 33l-6 34q0 11 23 11q122 0 125 -76q0 -24 -56 -142t-170 -362q12 0 13 -8q0 -20 -25 -23q-113 -240 -113 -313q1 -20 9 -26t8 -10q0 -3 -2 -3h-6q-42 0 -62 39t-20 101t47 206q-91 0 -191 8q-141 -151 -237 -215q-182 -123 -314 -127
q-133 -3 -211 55t-77 206q0 203 168 362q73 70 163 110t161 40q208 0 296 -108q27 -34 27 -64t-19 -57q-19 -26 -42 -40t-30 -14t-13 20q-8 31 -61 63t-124 33q-143 2 -282 -117q-138 -120 -138 -280zM1454 1032q-77 0 -124 81q-16 29 -34 55t-63 26t-78 -45q-14 0 -14 8
q0 29 36 57q35 28 105 29q70 0 122 -86t95 -86l25 4q25 0 24 -14q0 -9 -24 -19t-70 -10z" />
    <glyph glyph-name="Adieresis" unicode="&#xc4;" 
d="M133 184q-1 -133 133 -133q172 0 453 281q-25 2 -43 2h-29q-35 -4 -74 -15q-19 0 -34 64q-4 16 -4 38q0 52 110 52q55 0 168 -33q112 135 213 302t107 206l-7 31q0 12 18 12q87 0 124 -39q16 -16 16 -42t-12 -49t-112 -171t-220 -289q37 -12 74 -22t59 -21
q44 112 124 291q80 180 87 199l8 33l-6 34q0 11 23 11q122 0 125 -76q0 -24 -56 -142t-170 -362q12 0 13 -8q0 -20 -25 -23q-113 -240 -113 -313q1 -20 9 -26t8 -10q0 -3 -2 -3h-6q-42 0 -62 39t-20 101t47 206q-91 0 -191 8q-141 -151 -237 -215q-182 -123 -314 -127
q-133 -3 -211 55t-77 206q0 203 168 362q73 70 163 110t161 40q208 0 296 -108q27 -34 27 -64t-19 -57q-19 -26 -42 -40t-30 -14t-13 20q-8 31 -61 63t-124 33q-143 2 -282 -117q-138 -120 -138 -280zM1436 1274q18 0 24 -6q15 -5 27 -21t11 -20t-5 -7q-15 -11 -40 -74
q-26 -63 -42 -71q-16 0 -32 8q-15 8 -4 76t27 91q16 24 34 24zM1311 1274q18 0 24 -6q15 -5 27 -21t11 -20t-5 -7q-15 -11 -40 -74q-26 -63 -42 -71q-16 0 -32 8q-15 8 -4 76t27 91q16 24 34 24z" />
    <glyph glyph-name="Aring" unicode="&#xc5;" 
d="M133 184q-1 -133 133 -133q172 0 453 281q-25 2 -43 2h-29q-35 -4 -74 -15q-19 0 -34 64q-4 16 -4 38q0 52 110 52q55 0 168 -33q112 135 213 302t107 206l-7 31q0 12 18 12q87 0 124 -39q16 -16 16 -42t-12 -49t-112 -171t-220 -289q37 -12 74 -22t59 -21
q44 112 124 291q80 180 87 199l8 33l-6 34q0 11 23 11q122 0 125 -76q0 -24 -56 -142t-170 -362q12 0 13 -8q0 -20 -25 -23q-113 -240 -113 -313q1 -20 9 -26t8 -10q0 -3 -2 -3h-6q-42 0 -62 39t-20 101t47 206q-91 0 -191 8q-141 -151 -237 -215q-182 -123 -314 -127
q-133 -3 -211 55t-77 206q0 203 168 362q73 70 163 110t161 40q208 0 296 -108q27 -34 27 -64t-19 -57q-19 -26 -42 -40t-30 -14t-13 20q-8 31 -61 63t-124 33q-143 2 -282 -117q-138 -120 -138 -280zM1362 1190q-12 0 -12 -30t5 -32t9 -2q13 13 20 50q0 4 -9 9t-13 5z
M1360 1090q-23 0 -39 12t-16 72t14 78q14 20 40 20q27 0 55 -20t28 -29q0 -67 -43 -115q-16 -18 -39 -18z" />
    <glyph glyph-name="AE" unicode="&#xc6;" horiz-adv-x="1814" 
d="M1470 631q-41 6 -48 7l-70 13q-6 -14 -13.5 -28.5t-15.5 -30.5q47 18 147 39zM1092 -37q-82 -1 -82 141q0 64 47 205q-93 0 -191 8q-148 -158 -283.5 -248t-267.5 -94q-133 -4 -210.5 54.5t-77.5 206.5q0 202 120.5 317t211.5 155t161 40q136 0 229 -52t93 -133
q0 -30 -36.5 -64t-51.5 -34q-10 0 -17 26.5t-61.5 58.5t-124.5 32q-143 0 -280.5 -118.5t-137.5 -279.5q0 -91 43 -112t90 -21q172 0 453 281q-25 2 -29 2h-43q-35 -4 -74 -15q-18 0 -28 40t-10 62q0 52 110 52q55 0 168 -33q124 150 201.5 281t98 176t20.5 51l-7 31
q0 12 18 12q52 0 96 -17.5t44 -64.5q0 -25 -10 -44q-15 -29 -115 -176.5t-219 -287.5q37 -12 74 -22t59 -21q54 137 127 298.5t84 191.5l8 33l-6 34q0 11 20 11q128 0 128 -76q0 -6 -2 -10q108 9 182 37t133.5 55t91 48t44.5 21t43 -6t58.5 -23.5t28.5 -43.5t-13 -45
q-13 -20 -106.5 -122.5t-93.5 -154.5q0 -12 10.5 -20t10.5 -10.5t-9 -2.5q-77 19 -77 95q0 49 26 98q-41 -16 -95 -35.5t-105 -19.5q16 -10 39.5 -23.5t46 -29t39 -35t16.5 -57.5t-21.5 -58.5t-101.5 -20.5q-156 -17 -238.5 -42t-126.5 -101q6 0 7 -8t-19 -21
q-16 -45 -16 -103q0 -111 82.5 -182t180.5 -76q97 -5 161.5 49t64.5 169q0 47 -18.5 69.5t-42.5 22.5t-42 -9t-31 -20.5t-22.5 -20.5t-17.5 -9q-17 0 -42 37.5t-25 57.5q0 40 36 76t109 36t116.5 -31t63 -67t19.5 -84q0 -129 -85 -234.5t-286 -95.5q-135 7 -207 80t-94 122
q-23 -68 -23 -94t8.5 -32.5t8.5 -9.5t-2 -3h-6z" />
    <glyph glyph-name="Ccedilla" unicode="&#xc7;" horiz-adv-x="593" 
d="M644 987q144 0 144 -84q0 -43 -105 -204t-105 -234q0 -18 12 -29.5t12 -14.5t-10 -3q-30 0 -69.5 37.5t-39.5 96.5t49 173q10 10 -4 29.5t-55 17.5t-102.5 -52t-159.5 -189.5t-94 -317.5q2 -111 41 -169t104 -58q8 0 25 4q80 27 136 80t95 104t63.5 90t37.5 39t13 -18
t-9 -37t-17 -31t-64.5 -101t-152.5 -144.5t-147 -52.5t-88 22q16 -18 37.5 -35.5t21.5 -41.5v-24q0 -56 -33.5 -78t-61.5 -22q-51 0 -80.5 37t-29.5 67q3 52 37 52q4 0 23.5 -5.5t21.5 -15.5q-2 -4 -9 -12.5t-8 -14.5q-2 -12 9.5 -35.5t42.5 -23.5t49.5 20.5t18.5 41
t-18.5 32t-39 21.5t-39 22.5t-18.5 33.5t10 32q-76 90 -76 258q0 113 42 231.5t108.5 217t148.5 161t164 62.5t103.5 -25t25.5 -27q6 16 16.5 37t10.5 39l-6 31q-1 10 19 10z" />
    <glyph glyph-name="Egrave" unicode="&#xc8;" horiz-adv-x="757" 
d="M666 668q0 49 26 98q-41 -16 -95 -36t-105 -19q16 -10 59 -35q80 -46 82 -96q1 -50 -20 -71q-20 -20 -103 -22q-189 -16 -256 -50q-137 -70 -137 -203q0 -134 82 -204t180 -76q98 -5 163 49t64 169q0 47 -18 70q-48 62 -138 -28q-9 -9 -21 -9t-38 37t-26 57q0 66 67 96
t144 8t114 -90q36 -69 3 -195q-33 -127 -169 -191q-72 -34 -188 -28t-223 100t-107 251q0 198 152 295q84 55 243 86q-183 28 -225 47q-63 30 -63 64q0 60 25 102q8 14 20 14t39 -15t61 -15q131 -2 221 30q168 43 297 127q26 16 38 16t42 -6q88 -17 88 -69q0 -23 -13 -43
t-74 -88t-94 -115q-32 -46 -32 -66t10 -28t11 -11q0 -2 -9 -2q-77 19 -77 95zM401 1198q1 -20 25 -50q53 -64 158 -95q41 -20 26 -35t-100 -5q-84 11 -136 47q-43 27 -37 65q5 38 29 60q23 23 29 19z" />
    <glyph glyph-name="Eacute" unicode="&#xc9;" horiz-adv-x="757" 
d="M666 668q0 49 26 98q-41 -16 -95 -36t-105 -19q16 -10 59 -35q80 -46 82 -96q1 -50 -20 -71q-20 -20 -103 -22q-189 -16 -256 -50q-137 -70 -137 -203q0 -134 82 -204t180 -76q98 -5 163 49t64 169q0 47 -18 70q-48 62 -138 -28q-9 -9 -21 -9t-38 37t-26 57q0 66 67 96
t144 8t114 -90q36 -69 3 -195q-33 -127 -169 -191q-72 -34 -188 -28t-223 100t-107 251q0 198 152 295q84 55 243 86q-183 28 -225 47q-63 30 -63 64q0 60 25 102q8 14 20 14t39 -15t61 -15q131 -2 221 30q168 43 297 127q26 16 38 16t42 -6q88 -17 88 -69q0 -23 -13 -43
t-74 -88t-94 -115q-32 -46 -32 -66t10 -28t11 -11q0 -2 -9 -2q-77 19 -77 95zM596 1210l6 7q6 4 28 -18t28 -50t-6 -49t-84 -53q-71 -31 -148 -25q-65 4 -21 35q10 6 43 16t81 42t61 62q12 29 12 33z" />
    <glyph glyph-name="Ecircumflex" unicode="&#xca;" horiz-adv-x="757" 
d="M666 668q0 49 26 98q-41 -16 -95 -36t-105 -19q16 -10 59 -35q80 -46 82 -96q1 -50 -20 -71q-20 -20 -103 -22q-189 -16 -256 -50q-137 -70 -137 -203q0 -134 82 -204t180 -76q98 -5 163 49t64 169q0 47 -18 70q-48 62 -138 -28q-9 -9 -21 -9t-38 37t-26 57q0 66 67 96
t144 8t114 -90q36 -69 3 -195q-33 -127 -169 -191q-72 -34 -188 -28t-223 100t-107 251q0 198 152 295q84 55 243 86q-183 28 -225 47q-63 30 -63 64q0 60 25 102q8 14 20 14t39 -15t61 -15q131 -2 221 30q168 43 297 127q26 16 38 16t42 -6q88 -17 88 -69q0 -23 -13 -43
t-74 -88t-94 -115q-32 -46 -32 -66t10 -28t11 -11q0 -2 -9 -2q-77 19 -77 95zM737 1137q60 0 117 39v2q19 19 40 23q40 9 44 -42t106 -119q4 -6 17 -22t-6 -21q-59 -12 -142 63q-20 17 -32 32q-52 -21 -124 -9q-73 12 -73 29q-2 10 12 15t19 10h22z" />
    <glyph glyph-name="Edieresis" unicode="&#xcb;" horiz-adv-x="757" 
d="M666 668q0 49 26 98q-41 -16 -95 -36t-105 -19q16 -10 59 -35q80 -46 82 -96q1 -50 -20 -71q-20 -20 -103 -22q-189 -16 -256 -50q-137 -70 -137 -203q0 -134 82 -204t180 -76q98 -5 163 49t64 169q0 47 -18 70q-48 62 -138 -28q-9 -9 -21 -9t-38 37t-26 57q0 66 67 96
t144 8t114 -90q36 -69 3 -195q-33 -127 -169 -191q-72 -34 -188 -28t-223 100t-107 251q0 198 152 295q84 55 243 86q-183 28 -225 47q-63 30 -63 64q0 60 25 102q8 14 20 14t39 -15t61 -15q131 -2 221 30q168 43 297 127q26 16 38 16t42 -6q88 -17 88 -69q0 -23 -13 -43
t-74 -88t-94 -115q-32 -46 -32 -66t10 -28t11 -11q0 -2 -9 -2q-77 19 -77 95zM565 1212q10 0 17 -6q15 -5 29 -23t6 -23q-7 -5 -15 -18q-8 -14 -32 -67q-23 -53 -38 -61q-16 0 -31 8t-7 57q20 125 52 131q9 2 19 2zM440 1212q10 0 17 -6q15 -5 29 -23t6 -23q-7 -5 -15 -18
q-8 -14 -32 -67q-23 -54 -37 -61q-16 0 -32 8q-15 8 -7 57q20 125 52 131q9 2 19 2z" />
    <glyph glyph-name="Igrave" unicode="&#xcc;" horiz-adv-x="686" 
d="M748 981q79 0 104 -39q96 4 117 12t27 18t12 19q2 8 11 8t37 -35t27 -75q0 -94 -172 -94q-36 0 -82 4q-23 -53 -67 -143q-196 -404 -250 -568q31 8 41 24t16 17q26 0 55 -73q7 -19 7 -45q0 -25 -27 -51t-101 -26t-152 33q-79 33 -118 50t-69 22q-46 0 -102 -45
q-9 -8 -13 -8q-20 0 -24 22q0 14 5 18t17 18q58 63 164 65q55 1 111 -13t92 -14q9 146 86 321q20 51 45 107t49 112t45 107q23 51 39 90q-191 29 -255 29q-103 0 -172 -75q-26 -27 -38 -51t-20 -24q-23 0 -23 29q0 13 4 21t14 32t43 54q32 30 62 47q88 65 311 65l115 -4
l-6 27q0 12 35 12zM754 1260q0 -22 24 -52q51 -63 158 -94q40 -20 26 -35t-76 -8q-60 7 -98 21q-106 38 -100 90q6 41 29 64q24 23 31 20z" />
    <glyph glyph-name="Iacute" unicode="&#xcd;" horiz-adv-x="686" 
d="M748 981q79 0 104 -39q96 4 117 12t27 18t12 19q2 8 11 8t37 -35t27 -75q0 -94 -172 -94q-36 0 -82 4q-23 -53 -67 -143q-196 -404 -250 -568q31 8 41 24t16 17q26 0 55 -73q7 -19 7 -45q0 -25 -27 -51t-101 -26t-152 33q-79 33 -118 50t-69 22q-46 0 -102 -45
q-9 -8 -13 -8q-20 0 -24 22q0 14 5 18t17 18q58 63 164 65q55 1 111 -13t92 -14q9 146 86 321q20 51 45 107t49 112t45 107q23 51 39 90q-191 29 -255 29q-103 0 -172 -75q-26 -27 -38 -51t-20 -24q-23 0 -23 29q0 13 4 21t14 32t43 54q32 30 62 47q88 65 311 65l115 -4
l-6 27q0 12 35 12zM893 1260l6 6q7 4 25 -14t29 -47q11 -28 -3 -53t-86 -56q-73 -31 -147 -25q-48 3 -36 22q9 13 30 21q139 41 176 125q6 17 6 21z" />
    <glyph glyph-name="Icircumflex" unicode="&#xce;" horiz-adv-x="686" 
d="M748 981q79 0 104 -39q96 4 117 12t27 18t12 19q2 8 11 8t37 -35t27 -75q0 -94 -172 -94q-36 0 -82 4q-23 -53 -67 -143q-196 -404 -250 -568q31 8 41 24t16 17q26 0 55 -73q7 -19 7 -45q0 -25 -27 -51t-101 -26t-152 33q-79 33 -118 50t-69 22q-46 0 -102 -45
q-9 -8 -13 -8q-20 0 -24 22q0 14 5 18t17 18q58 63 164 65q55 1 111 -13t92 -14q9 146 86 321q20 51 45 107t49 112t45 107q23 51 39 90q-191 29 -255 29q-103 0 -172 -75q-26 -27 -38 -51t-20 -24q-23 0 -23 29q0 13 4 21t14 32t43 54q32 30 62 47q88 65 311 65l115 -4
l-6 27q0 12 35 12zM649 1169q12 0 23 5q49 6 94 34v2q20 20 40 24q40 9 44 -42t106 -119q4 -6 17 -23t-6 -20q-59 -12 -142 63q-20 17 -32 31q-50 -20 -124 -8q-73 12 -73 29q-2 10 12 15t19 9h22z" />
    <glyph glyph-name="Idieresis" unicode="&#xcf;" horiz-adv-x="686" 
d="M748 981q79 0 104 -39q96 4 117 12t27 18t12 19q2 8 11 8t37 -35t27 -75q0 -94 -172 -94q-36 0 -82 4q-23 -53 -67 -143q-196 -404 -250 -568q31 8 41 24t16 17q26 0 55 -73q7 -19 7 -45q0 -25 -27 -51t-101 -26t-152 33q-79 33 -118 50t-69 22q-46 0 -102 -45
q-9 -8 -13 -8q-20 0 -24 22q0 14 5 18t17 18q58 63 164 65q55 1 111 -13t92 -14q9 146 86 321q20 51 45 107t49 112t45 107q23 51 39 90q-191 29 -255 29q-103 0 -172 -75q-26 -27 -38 -51t-20 -24q-23 0 -23 29q0 13 4 21t14 32t43 54q32 30 62 47q88 65 311 65l115 -4
l-6 27q0 12 35 12zM926 1274q18 0 24 -6q15 -5 27 -21t11 -20t-5 -7q-15 -11 -40 -74q-26 -63 -42 -71q-16 0 -32 8q-15 8 -4 76t27 91q16 24 34 24zM809 1274q10 0 16 -6q15 -5 27 -21t11 -20t-5 -7q-15 -11 -40 -74q-26 -63 -42 -71q-16 0 -32 8q-15 7 -7 57
q20 121 53 132q9 2 19 2z" />
    <glyph glyph-name="Eth" unicode="&#xd0;" horiz-adv-x="862" 
d="M203 412q-16 -12 -31 -27l18 -6q4 8 6.5 15.5t6.5 17.5zM102 276q-20 -54 -20 -102t9 -69q66 -154 201 -154q89 0 175 65.5t203 237.5t149 438q0 106 -89 114.5t-170 8.5t-189 -29q114 0 114 -73q0 -29 -12 -55.5t-24 -55.5q2 0 2 -1t2 -1q61 -16 82.5 -45t21.5 -46
q0 -27 -14.5 -64t-32.5 -37q-68 43 -135 49q-16 -29 -29.5 -58.5t-30.5 -58.5q161 -49 246 -35q14 4 19.5 11.5t8.5 7.5t1 -7q8 -39 -26 -64.5t-84 -37.5t-212 25q-53 -122 -53 -157t9 -43.5t9 -11.5t-2 -3h-6q-41 0 -61.5 38.5t-20.5 90.5t15 112zM291 764v-2
q-54 -13 -89.5 -48.5t-43.5 -35.5q-21 0 -45.5 37.5t-24.5 68.5q0 99 178 136.5t264 37.5t159 -8t137 -40q120 -59 120 -205q0 -79 -46 -200q-102 -267 -261 -438t-338 -171q-145 0 -233 129q-8 14 -32 67t-24 150v18q0 19 4 31q-42 4 -67 -4q-8 -2 -9 16.5t13.5 70t53 48
t50.5 -5.5q74 136 226 180q35 76 48 103.5t13 42.5t-4 23.5t-4 12.5q-42 -14 -45 -14z" />
    <glyph glyph-name="Ntilde" unicode="&#xd1;" horiz-adv-x="1005" 
d="M1102 961q118 0 121 -78q0 -38 -39 -116q-39 -79 -78 -156q-248 -490 -248 -591q0 -18 7 -24t7 -9t-4 -3q-42 0 -64 36t-22 92q0 144 155 465q40 83 71 156q-205 -151 -361 -327q-53 -60 -92 -144q-111 -238 -111 -317q0 -21 8 -27t9 -10q0 -4 -8 -4q-41 0 -63 39t-22 76
q1 98 66 287q28 86 123 298t100 230q6 18 2 18q-94 -13 -145 -44q-119 -73 -216 -230q-97 -156 -95 -316q0 -88 19 -131q40 -91 80 -116q19 -11 20 -13q0 -12 -41 -50t-70 -38q-62 0 -109 80t-48 215q-2 227 117 398q92 133 244 212q151 78 267 78t119 -76q0 -41 -41 -126
t-82 -171q172 227 299 361q37 39 63 57t62 19zM1064 1032q-76 0 -123 81q-17 29 -35 55t-62 26q-45 0 -78 -45q-14 0 -14 8q0 29 36 57t105 29q70 0 122 -86t95 -86l25 4q25 0 24 -14q1 -9 -23 -19t-72 -10z" />
    <glyph glyph-name="Ograve" unicode="&#xd2;" horiz-adv-x="823" 
d="M432 675q0 -53 -74 -93q-77 -44 -120 -92q-99 -112 -99 -281q0 -97 36 -153t74 -80q39 -24 109 -23q70 0 132 52t104 129q78 147 80 336q0 81 -10 136q-46 0 -126 28t-108 64q2 -8 2 -23zM537 821h-24q-13 0 -15 -10q0 -51 74 -83q28 -11 71 -11q-13 45 -39 75t-67 29z
M337 809q5 0 15 -6q-8 20 -8 56q0 67 80 102q52 22 109 22q104 0 178 -71t104 -179q25 8 114 58q89 49 138 83t66 68q2 4 26 -8t50 -56t3 -88q-10 -22 -30 -38q-62 -50 -111 -77q-100 -54 -233 -69l2 -55q0 -90 -31 -205q-68 -252 -246 -384q-91 -68 -201 -68
q-186 1 -273 126q-66 96 -68 228q-1 131 30 213q68 179 215 282q36 19 48 37q10 19 14 24t9 5zM569 1260q1 -23 25 -52q54 -64 158 -94q39 -20 25 -35q-15 -16 -97 -5t-137 46t-31 90q8 23 26 41t25 15z" />
    <glyph glyph-name="Oacute" unicode="&#xd3;" horiz-adv-x="823" 
d="M432 675q0 -53 -74 -93q-77 -44 -120 -92q-99 -112 -99 -281q0 -97 36 -153t74 -80q39 -24 109 -23q70 0 132 52t104 129q78 147 80 336q0 81 -10 136q-46 0 -126 28t-108 64q2 -8 2 -23zM537 821h-24q-13 0 -15 -10q0 -51 74 -83q28 -11 71 -11q-13 45 -39 75t-67 29z
M337 809q5 0 15 -6q-8 20 -8 56q0 67 80 102q52 22 109 22q104 0 178 -71t104 -179q25 8 114 58q89 49 138 83t66 68q2 4 26 -8t50 -56t3 -88q-10 -22 -30 -38q-62 -50 -111 -77q-100 -54 -233 -69l2 -55q0 -90 -31 -205q-68 -252 -246 -384q-91 -68 -201 -68
q-186 1 -273 126q-66 96 -68 228q-1 131 30 213q68 179 215 282q36 19 48 37q10 19 14 24t9 5zM672 1260l6 6q6 4 24 -14t29 -47q11 -28 -2 -53q-14 -25 -86 -56q-73 -31 -147 -25q-48 3 -36 22q7 10 29 21q140 41 177 125q6 17 6 21z" />
    <glyph glyph-name="Ocircumflex" unicode="&#xd4;" horiz-adv-x="823" 
d="M432 675q0 -53 -74 -93q-77 -44 -120 -92q-99 -112 -99 -281q0 -97 36 -153t74 -80q39 -24 109 -23q70 0 132 52t104 129q78 147 80 336q0 81 -10 136q-46 0 -126 28t-108 64q2 -8 2 -23zM537 821h-24q-13 0 -15 -10q0 -51 74 -83q28 -11 71 -11q-13 45 -39 75t-67 29z
M337 809q5 0 15 -6q-8 20 -8 56q0 67 80 102q52 22 109 22q104 0 178 -71t104 -179q25 8 114 58q89 49 138 83t66 68q2 4 26 -8t50 -56t3 -88q-10 -22 -30 -38q-62 -50 -111 -77q-100 -54 -233 -69l2 -55q0 -90 -31 -205q-68 -252 -246 -384q-91 -68 -201 -68
q-186 1 -273 126q-66 96 -68 228q-1 131 30 213q68 179 215 282q36 19 48 37q10 19 14 24t9 5zM468 1169q12 0 24 5q49 6 94 34v2q21 21 41 25q39 8 41 -29q8 -67 108 -133q4 -6 17 -23t-7 -20q-39 -7 -89 24q-49 31 -85 70q-51 -20 -123 -8q-73 12 -73 29q-2 10 12 15t18 9
h22z" />
    <glyph glyph-name="Otilde" unicode="&#xd5;" horiz-adv-x="823" 
d="M432 675q0 -53 -74 -93q-77 -44 -120 -92q-99 -112 -99 -281q0 -97 36 -153t74 -80q39 -24 109 -23q70 0 132 52t104 129q78 147 80 336q0 81 -10 136q-46 0 -126 28t-108 64q2 -8 2 -23zM537 821h-24q-13 0 -15 -10q0 -51 74 -83q28 -11 71 -11q-13 45 -39 75t-67 29z
M337 809q5 0 15 -6q-8 20 -8 56q0 67 80 102q52 22 109 22q104 0 178 -71t104 -179q25 8 114 58q89 49 138 83t66 68q2 4 26 -8t50 -56t3 -88q-10 -22 -30 -38q-62 -50 -111 -77q-100 -54 -233 -69l2 -55q0 -90 -31 -205q-68 -252 -246 -384q-91 -68 -201 -68
q-186 1 -273 126q-66 96 -68 228q-1 131 30 213q68 179 215 282q36 19 48 37q10 19 14 24t9 5zM891 1063q0 -11 -24 -21t-71 -10q-76 0 -123 81q-17 29 -35 55t-62 26q-45 0 -78 -45q-14 0 -15 8q0 29 36 57q35 28 105 29q70 0 122 -86q51 -86 96 -86l24 4q25 0 25 -12z" />
    <glyph glyph-name="Odieresis" unicode="&#xd6;" horiz-adv-x="823" 
d="M432 675q0 -53 -74 -93q-77 -44 -120 -92q-99 -112 -99 -281q0 -97 36 -153t74 -80q39 -24 109 -23q70 0 132 52t104 129q78 147 80 336q0 81 -10 136q-46 0 -126 28t-108 64q2 -8 2 -23zM537 821h-24q-13 0 -15 -10q0 -51 74 -83q28 -11 71 -11q-13 45 -39 75t-67 29z
M337 809q5 0 15 -6q-8 20 -8 56q0 67 80 102q52 22 109 22q104 0 178 -71t104 -179q25 8 114 58q89 49 138 83t66 68q2 4 26 -8t50 -56t3 -88q-10 -22 -30 -38q-62 -50 -111 -77q-100 -54 -233 -69l2 -55q0 -90 -31 -205q-68 -252 -246 -384q-91 -68 -201 -68
q-186 1 -273 126q-66 96 -68 228q-1 131 30 213q68 179 215 282q36 19 48 37q10 19 14 24t9 5zM729 1274q10 0 16 -6q15 -5 27 -21t11 -20t-5 -7q-4 -2 -12 -16t-32 -68q-23 -53 -38 -61q-16 0 -31 8q-15 7 -7 57q18 121 52 132q9 2 19 2zM604 1274q10 0 17 -6q15 -5 27 -21
t10 -20q-1 -4 -5 -7q-4 -2 -12 -16t-32 -68q-23 -53 -38 -61q-16 0 -31 8q-16 7 -8 57q18 121 53 132q9 2 19 2z" />
    <glyph glyph-name="multiply" unicode="&#xd7;" horiz-adv-x="538" 
d="M63 621q-6 6 31 40q60 54 102 14q24 -23 72 -151q20 29 37 54q73 113 118 112q34 0 62 -28q22 -31 18 -40q-23 -11 -91 -99q-68 -87 -95 -122q50 -118 93 -159q24 -29 36 -26t17 1q0 -8 -8 -16q-33 -47 -88 -26t-76 61q-10 16 -25 31q-14 15 -26 38q-102 -117 -186 -134
q-43 -7 -56 33q-8 21 1 14q9 -6 37 10t68 66t82 107q-51 137 -110 211q-7 9 -13 9zM502 621q0 1 1 1q0 -1 -1 -1z" />
    <glyph glyph-name="Oslash" unicode="&#xd8;" horiz-adv-x="823" 
d="M356 -47q102 0 183 80q-72 29 -107 88t-35 127v12q0 12 2 23q-65 -143 -131 -303q39 -27 88 -27zM158 244q0 -92 20 -146q61 189 242 559q-10 -4 -18 -9t-45.5 -29.5t-81.5 -75.5t-80.5 -129t-36.5 -170zM705 492q0 159 -91 256q-24 -49 -106 -230q67 -11 92 -41.5
t25 -46.5t-11.5 -37.5t-35 -80t-23.5 -120.5q0 -61 39 -86q111 174 111 386zM575 1053q1 6 11 6q26 0 69 -28t43 -70q0 -18 -14 -58q158 -135 158 -358q0 -127 -43 -247t-119 -212q76 -6 139 40q18 13 20.5 9t4.5 -4q-23 -58 -90 -86.5t-129 -28.5q-8 0 -80 -59t-205 -59
q-51 0 -96 16q-41 -106 -41 -137t7 -37t7 -9t-8 -3q-41 0 -61.5 38.5t-22.5 77.5q4 63 20 131q-110 106 -110 303q0 196 80 306t124 148t59 47l25 15q25 15 43.5 22t33 12.5t20.5 5.5q36 -4 61 -43l19 40q-47 27 -80 17q-8 -4 -2 16.5t36 69t72 51.5q16 0 33 -8q16 49 16 76
z" />
    <glyph glyph-name="Ugrave" unicode="&#xd9;" horiz-adv-x="827" 
d="M201 649q0 -105 41 -139q164 375 164 399q-86 0 -132 -60q-22 -28 -47 -86q-26 -57 -26 -114zM895 971q0 15 63 10q88 -6 86 -76q0 -36 -39 -115q-112 -227 -159 -326q-166 -351 -166 -431q0 -19 7 -25t7 -9t-2 -3h-6q-38 0 -60 38t-22 91t21 119q-107 -136 -223 -198
q-78 -42 -152 -42q-115 0 -115 118t43 234q-115 72 -115 236t105 270t217 107q159 0 162 -95q1 -26 -9 -48t-22 -52q-12 -29 -32 -71t-47 -94q-26 -52 -52 -107h2q37 14 49 34t16 21q24 0 57 -82q9 -25 9 -62q0 -97 -190 -100l-29 2q-23 -51 -47 -106t-23 -90q0 -51 52 -51
q79 0 205 111q125 111 233 313q65 164 109 260q43 96 69 159l-2 2q6 14 6 27zM641 1260q1 -23 25 -52q54 -63 157 -94q40 -20 26 -35t-75 -8q-61 8 -120 29t-72 52q-25 46 28 99q18 18 25 15z" />
    <glyph glyph-name="Uacute" unicode="&#xda;" horiz-adv-x="827" 
d="M201 649q0 -105 41 -139q164 375 164 399q-86 0 -132 -60q-22 -28 -47 -86q-26 -57 -26 -114zM895 971q0 15 63 10q88 -6 86 -76q0 -36 -39 -115q-112 -227 -159 -326q-166 -351 -166 -431q0 -19 7 -25t7 -9t-2 -3h-6q-38 0 -60 38t-22 91t21 119q-107 -136 -223 -198
q-78 -42 -152 -42q-115 0 -115 118t43 234q-115 72 -115 236t105 270t217 107q159 0 162 -95q1 -26 -9 -48t-22 -52q-12 -29 -32 -71t-47 -94q-26 -52 -52 -107h2q37 14 49 34t16 21q24 0 57 -82q9 -25 9 -62q0 -97 -190 -100l-29 2q-23 -51 -47 -106t-23 -90q0 -51 52 -51
q79 0 205 111q125 111 233 313q65 164 109 260q43 96 69 159l-2 2q6 14 6 27zM780 1260l6 6q6 4 24 -14t30 -47q11 -28 -2 -53q-14 -25 -87 -56t-147 -25q-48 3 -36 22q7 9 30 21q100 30 152 87q30 37 30 59z" />
    <glyph glyph-name="Ucircumflex" unicode="&#xdb;" horiz-adv-x="827" 
d="M201 649q0 -105 41 -139q164 375 164 399q-86 0 -132 -60q-22 -28 -47 -86q-26 -57 -26 -114zM895 971q0 15 63 10q88 -6 86 -76q0 -36 -39 -115q-112 -227 -159 -326q-166 -351 -166 -431q0 -19 7 -25t7 -9t-2 -3h-6q-38 0 -60 38t-22 91t21 119q-107 -136 -223 -198
q-78 -42 -152 -42q-115 0 -115 118t43 234q-115 72 -115 236t105 270t217 107q159 0 162 -95q1 -26 -9 -48t-22 -52q-12 -29 -32 -71t-47 -94q-26 -52 -52 -107h2q37 14 49 34t16 21q24 0 57 -82q9 -25 9 -62q0 -97 -190 -100l-29 2q-23 -51 -47 -106t-23 -90q0 -51 52 -51
q79 0 205 111q125 111 233 313q65 164 109 260q43 96 69 159l-2 2q6 14 6 27zM532 1169q12 0 23 5q49 6 94 34v2q21 20 41 24q40 9 43 -42q4 -51 107 -119q4 -6 16 -23t-7 -20q-39 -8 -88 24t-85 70q-51 -20 -123 -9q-72 12 -74 30q-1 10 13 15t18 9h22z" />
    <glyph glyph-name="Udieresis" unicode="&#xdc;" horiz-adv-x="827" 
d="M201 649q0 -105 41 -139q164 375 164 399q-86 0 -132 -60q-22 -28 -47 -86q-26 -57 -26 -114zM895 971q0 15 63 10q88 -6 86 -76q0 -36 -39 -115q-112 -227 -159 -326q-166 -351 -166 -431q0 -19 7 -25t7 -9t-2 -3h-6q-38 0 -60 38t-22 91t21 119q-107 -136 -223 -198
q-78 -42 -152 -42q-115 0 -115 118t43 234q-115 72 -115 236t105 270t217 107q159 0 162 -95q1 -26 -9 -48t-22 -52q-12 -29 -32 -71t-47 -94q-26 -52 -52 -107h2q37 14 49 34t16 21q24 0 57 -82q9 -25 9 -62q0 -97 -190 -100l-29 2q-23 -51 -47 -106t-23 -90q0 -51 52 -51
q79 0 205 111q125 111 233 313q65 164 109 260q43 96 69 159l-2 2q6 14 6 27zM809 1274q10 0 16 -6q15 -5 27 -21t11 -20t-5 -7q-15 -11 -40 -74q-26 -63 -42 -71q-16 0 -32 8q-15 7 -7 57q20 121 53 132q9 2 19 2zM684 1274q10 0 16 -6q15 -5 27 -21t11 -20t-5 -7
q-15 -11 -40 -74q-26 -63 -42 -71q-16 0 -31 8q-16 7 -8 57q18 121 53 132q9 2 19 2z" />
    <glyph glyph-name="Yacute" unicode="&#xdd;" horiz-adv-x="854" 
d="M458 -143q15 -27 22 -15q28 48 100 264q-60 0 -95 -67q-36 -67 -39 -111t12 -71zM573 246q19 4 33 4t21 12q15 30 37 96q-49 -68 -91 -112zM406 971q-93 0 -149 -81t-56 -182q0 -100 41 -137q164 391 164 400zM227 180q0 -49 52 -49q82 0 219 126t245 347q49 149 69 200
q31 80 16 105q-5 11 -5 19t37 8t68 -6t50 -31q19 -23 19 -53t-12 -51q-6 -19 -28 -77t-75 -209t-110 -292q16 -1 21 -29q6 -28 6 -55q-1 -27 -19 -55q-18 -29 -22 -29l-45 23q-82 -194 -155 -255q-38 -32 -83 -28q-50 0 -87 103q-11 34 -11 99t26 118q-78 -43 -145 -43
t-96 34t-29 86q0 119 45 232q-115 80 -115 239t106 267t216 106q159 0 162 -94q1 -31 -25 -86t-58 -121t-79 -164q35 10 49 32q14 21 18 21t15 -11q51 -56 51 -113t-26 -77q-54 -42 -164 -42l-29 2q-23 -51 -47 -107t-25 -90zM782 1260l6 6q6 4 24 -14t30 -47q11 -28 -2 -53
q-14 -25 -87 -56t-147 -25q-48 3 -36 22q7 9 30 21q100 30 152 87q30 37 30 59z" />
    <glyph glyph-name="agrave" unicode="&#xe0;" horiz-adv-x="489" 
d="M88 141q0 -48 18 -49q77 0 156 170q2 2 7 32t19 64q36 90 93 88q47 0 87 -45q7 -8 7 -11t-3 -6q-46 -46 -117 -244q-9 -28 -9 -38t14 -10t67 27t72 46l25 25t11 5q6 -4 6 -11l-6 -14l-15 -22q-34 -53 -88 -86q-55 -34 -100 -33q-78 0 -78 98q-83 -102 -165 -101t-111 109
q-7 31 -7 101t56 177q56 108 154 170q54 34 128 38q92 0 137 -26q46 -26 46 -57t-21 -61t-37 -33q-34 56 -93 55q-109 -2 -187 -137q-66 -110 -66 -221zM295 850q1 -24 25 -52q57 -65 157 -93q41 -21 26 -36t-98 -4q-84 11 -131 42t-43 68q4 38 27 61q24 24 31 20z" />
    <glyph glyph-name="aacute" unicode="&#xe1;" horiz-adv-x="489" 
d="M88 141q0 -48 18 -49q77 0 156 170q2 2 7 32t19 64q36 90 93 88q47 0 87 -45q7 -8 7 -11t-3 -6q-46 -46 -117 -244q-9 -28 -9 -38t14 -10t67 27t72 46l25 25t11 5q6 -4 6 -11l-6 -14l-15 -22q-34 -53 -88 -86q-55 -34 -100 -33q-78 0 -78 98q-83 -102 -165 -101t-111 109
q-7 31 -7 101t56 177q56 108 154 170q54 34 128 38q92 0 137 -26q46 -26 46 -57t-21 -61t-37 -33q-34 56 -93 55q-109 -2 -187 -137q-66 -110 -66 -221zM426 850l6 6q6 4 28 -18t28 -50t-6 -49t-84 -52t-148 -25q-49 3 -36 21q5 7 30 22q137 40 176 124q6 17 6 21z" />
    <glyph glyph-name="acircumflex" unicode="&#xe2;" horiz-adv-x="489" 
d="M88 141q0 -48 18 -49q77 0 156 170q2 2 7 32t19 64q36 90 93 88q47 0 87 -45q7 -8 7 -11t-3 -6q-46 -46 -117 -244q-9 -28 -9 -38t14 -10t67 27t72 46l25 25t11 5q6 -4 6 -11l-6 -14l-15 -22q-34 -53 -88 -86q-55 -34 -100 -33q-78 0 -78 98q-83 -102 -165 -101t-111 109
q-7 31 -7 101t56 177q56 108 154 170q54 34 128 38q92 0 137 -26q46 -26 46 -57t-21 -61t-37 -33q-34 56 -93 55q-109 -2 -187 -137q-66 -110 -66 -221zM238 760q60 0 116 39v2q19 19 40 23q40 8 44 -38q5 -57 107 -122q16 -24 18 -33q2 -8 -8 -10q-59 -12 -141 62
q-20 17 -33 32q-57 -23 -126 -10t-71 30q-2 9 12 15t19 10h23z" />
    <glyph glyph-name="atilde" unicode="&#xe3;" horiz-adv-x="489" 
d="M88 141q0 -48 18 -49q77 0 156 170q2 2 7 32t19 64q36 90 93 88q47 0 87 -45q7 -8 7 -11t-3 -6q-46 -46 -117 -244q-9 -28 -9 -38t14 -10t67 27t72 46l25 25t11 5q6 -4 6 -11l-6 -14l-15 -22q-34 -53 -88 -86q-55 -34 -100 -33q-78 0 -78 98q-83 -102 -165 -101t-111 109
q-7 31 -7 101t56 177q56 108 154 170q54 34 128 38q92 0 137 -26q46 -26 46 -57t-21 -61t-37 -33q-34 56 -93 55q-109 -2 -187 -137q-66 -110 -66 -221zM219 748q0 30 36 58q35 28 105 28t122 -86t88 -86q9 0 33 2t24 -13q0 -10 -24 -19t-71 -9q-76 0 -123 80q-17 30 -35 56
t-64 25q-47 -1 -71 -38l-6 -7q-14 0 -14 9z" />
    <glyph glyph-name="adieresis" unicode="&#xe4;" horiz-adv-x="489" 
d="M88 141q0 -48 18 -49q77 0 156 170q2 2 7 32t19 64q36 90 93 88q47 0 87 -45q7 -8 7 -11t-3 -6q-46 -46 -117 -244q-9 -28 -9 -38t14 -10t67 27t72 46l25 25t11 5q6 -4 6 -11l-6 -14l-15 -22q-34 -53 -88 -86q-55 -34 -100 -33q-78 0 -78 98q-83 -102 -165 -101t-111 109
q-7 31 -7 101t56 177q56 108 154 170q54 34 128 38q92 0 137 -26q46 -26 46 -57t-21 -61t-37 -33q-34 56 -93 55q-109 -2 -187 -137q-66 -110 -66 -221zM485 864q10 0 17 -6q14 -4 26 -20t12 -20t-5 -8q-5 -3 -13 -16q-9 -14 -32 -67q-23 -54 -37 -61q-16 0 -32 8
q-15 8 -7 57q20 124 52 131q9 2 19 2zM360 864q10 0 17 -6q15 -4 27 -20t10 -20q0 -4 -4 -8q-4 -3 -12 -16q-9 -14 -33 -67q-23 -54 -37 -61q-16 0 -32 8q-15 8 -7 57q20 124 52 131q9 2 19 2z" />
    <glyph glyph-name="aring" unicode="&#xe5;" horiz-adv-x="489" 
d="M88 141q0 -48 18 -49q77 0 156 170q2 2 7 32t19 64q36 90 93 88q47 0 87 -45q7 -8 7 -11t-3 -6q-46 -46 -117 -244q-9 -28 -9 -38t14 -10t67 27t72 46l25 25t11 5q6 -4 6 -11l-6 -14l-15 -22q-34 -53 -88 -86q-55 -34 -100 -33q-78 0 -78 98q-83 -102 -165 -101t-111 109
q-7 31 -7 101t56 177q56 108 154 170q54 34 128 38q92 0 137 -26q46 -26 46 -57t-21 -61t-37 -33q-34 56 -93 55q-109 -2 -187 -137q-66 -110 -66 -221zM422 780q-12 0 -12 -30t5 -31q5 -2 9 -2q14 14 20 49q0 4 -9 9t-13 5zM420 680q-23 0 -39 12t-16 72t14 79t40 19
q27 0 55 -19t28 -29q0 -67 -43 -116q-16 -18 -39 -18z" />
    <glyph glyph-name="ae" unicode="&#xe6;" horiz-adv-x="749" 
d="M588 485q-25 0 -71 -46t-79 -132q46 0 116.5 48t70.5 100q4 30 -37 30zM88 140q0 -48 18 -48q42 0 85 51t71 119q2 2 17.5 81.5t82.5 98.5q12 23 29 45q-23 11 -67 11t-91 -40t-79.5 -95.5t-49 -115t-16.5 -107.5zM94 27q-123 1 -123 193q0 85 40 164t106 153.5t192 83.5
q127 0 166 -50q72 50 147 50q76 0 104 -53.5t25 -104.5q-6 -97 -94 -157t-176 -60q-33 0 -59 10q-8 -32 -8 -61q-7 -103 96 -103q96 0 155.5 48t71.5 68t20.5 19.5t8.5 -9.5t-4 -13q-23 -46 -65 -83.5t-101 -65t-137 -27.5t-117 41v-37q-55 -22 -71.5 16t-16.5 78
q-81 -100 -160 -100z" />
    <glyph glyph-name="ccedilla" unicode="&#xe7;" horiz-adv-x="405" 
d="M27 -35q4 0 23.5 -5t21.5 -15q-2 -4 -9.5 -12.5t-8.5 -14.5q-2 -12 10 -35.5t43 -23.5t49 20.5t18 41t-18.5 31.5t-39 21.5t-39 22.5t-18.5 35v12q-75 41 -75 70v131q8 156 102 267.5t197 111.5t133 -39t28 -75q-3 -57 -41.5 -82.5t-50.5 -25.5q-12 -1 -12 5t3 24t-5 45
t-56.5 27t-106.5 -89.5t-66 -208.5q-9 -120 77 -120q54 0 120 40.5t93 80.5q15 18 19 18q12 0 12 -10q0 -2 -1 -2t-1 -2v-2q-75 -137 -165.5 -159.5t-123.5 -22.5h-14q6 -12 38 -41t32 -54v-20q0 -56 -34 -78t-62 -22q-50 0 -79.5 36t-27.5 78q1 41 35 41z" />
    <glyph glyph-name="egrave" unicode="&#xe8;" horiz-adv-x="436" 
d="M283 489q-18 1 -37 -15t-39 -32q-49 -49 -82 -133q49 0 99 35q93 66 95 115q4 30 -36 30zM440 229q13 0 13 -13t-9 -13q-81 -133 -233 -166q-41 -8 -74 -8q-171 0 -149 211q13 150 110 269q98 118 217 118q51 1 79 -23q56 -46 52 -135q-11 -101 -101 -161t-179 -60
q-33 0 -60 10q-5 -19 -9 -73q-5 -54 24 -73t80 -20t125 38q73 38 107 94q3 5 7 5zM264 850q0 -24 24 -52q57 -65 158 -93q41 -21 26 -36t-99 -4t-136 47q-42 27 -37 64q5 38 28 61t30 19z" />
    <glyph glyph-name="eacute" unicode="&#xe9;" horiz-adv-x="436" 
d="M283 489q-18 1 -37 -15t-39 -32q-49 -49 -82 -133q49 0 99 35q93 66 95 115q4 30 -36 30zM440 229q13 0 13 -13t-9 -13q-81 -133 -233 -166q-41 -8 -74 -8q-171 0 -149 211q13 150 110 269q98 118 217 118q51 1 79 -23q56 -46 52 -135q-11 -101 -101 -161t-179 -60
q-33 0 -60 10q-5 -19 -9 -73q-5 -54 24 -73t80 -20t125 38q73 38 107 94q3 5 7 5zM391 850l6 6q6 4 30 -19t28 -50t-7 -47t-83 -52t-150 -26q-49 3 -36 21q5 7 15 13l15 9q137 40 176 124q6 17 6 21z" />
    <glyph glyph-name="ecircumflex" unicode="&#xea;" horiz-adv-x="436" 
d="M283 489q-18 1 -37 -15t-39 -32q-49 -49 -82 -133q49 0 99 35q93 66 95 115q4 30 -36 30zM440 229q13 0 13 -13t-9 -13q-81 -133 -233 -166q-41 -8 -74 -8q-171 0 -149 211q13 150 110 269q98 118 217 118q51 1 79 -23q56 -46 52 -135q-11 -101 -101 -161t-179 -60
q-33 0 -60 10q-5 -19 -9 -73q-5 -54 24 -73t80 -20t125 38q73 38 107 94q3 5 7 5zM186 760q60 0 117 39v2q19 19 40 23q40 8 44 -38q5 -57 107 -122q16 -24 18 -33q2 -8 -8 -10q-56 -11 -142 62q-20 17 -32 32q-57 -23 -126 -10t-71 30q-2 9 12 15t19 10h22z" />
    <glyph glyph-name="edieresis" unicode="&#xeb;" horiz-adv-x="436" 
d="M283 489q-18 1 -37 -15t-39 -32q-49 -49 -82 -133q49 0 99 35q93 66 95 115q4 30 -36 30zM440 229q13 0 13 -13t-9 -13q-81 -133 -233 -166q-41 -8 -74 -8q-171 0 -149 211q13 150 110 269q98 118 217 118q51 1 79 -23q56 -46 52 -135q-11 -101 -101 -161t-179 -60
q-33 0 -60 10q-5 -19 -9 -73q-5 -54 24 -73t80 -20t125 38q73 38 107 94q3 5 7 5zM444 864q10 0 17 -6q15 -4 27 -20t10 -20q0 -4 -4 -8q-4 -3 -12 -16q-9 -14 -33 -67q-23 -54 -37 -61q-16 0 -32 8q-15 8 -7 57q20 124 52 131q9 2 19 2zM319 864q10 0 17 -6q14 -4 26 -20
t12 -20t-5 -8q-16 -12 -41 -74t-41 -70q-16 0 -32 8q-15 8 -7 57q20 124 52 131q9 2 19 2z" />
    <glyph glyph-name="igrave" unicode="&#xec;" horiz-adv-x="208" 
d="M164 850q0 -48 61 -87.5t93 -49.5t42.5 -16.5t17.5 -18.5t-47 -17t-112 15q-96 33 -111.5 61.5t-4.5 57.5t30 47t25 14zM76 587.5q0 12.5 36 12.5q142 0 142 -78q0 -27 -89.5 -179t-101.5 -245q3 -6 17 -6q35 0 150 88l22 17q10 0 10 -13q-2 -2 -4 -6t-5 -9
q-23 -39 -79 -88.5t-133 -49.5q-29 0 -56.5 21.5t-27.5 61.5t15.5 94t36 112.5t41 112.5t31.5 88t3 44t-8 22.5z" />
    <glyph glyph-name="iacute" unicode="&#xed;" horiz-adv-x="208" 
d="M287 850l6 6q6 4 24.5 -14.5t25.5 -36.5q15 -38 1 -63t-88 -57q-74 -31 -145 -23q-49 3 -40 15.5t19 18.5t14 9q106 31 144.5 77.5t38.5 67.5zM76 587.5q0 12.5 36 12.5q142 0 142 -78q0 -27 -89.5 -179t-101.5 -245q3 -6 17 -6q35 0 150 88l22 17q10 0 10 -13
q-2 -2 -4 -6t-5 -9q-23 -39 -79 -88.5t-133 -49.5q-29 0 -56.5 21.5t-27.5 61.5t15.5 94t36 112.5t41 112.5t31.5 88t3 44t-8 22.5z" />
    <glyph glyph-name="icircumflex" unicode="&#xee;" horiz-adv-x="208" 
d="M94 760q15 0 72 39v2q19 19 40 23q40 8 44 -38q5 -58 106 -122q4 -6 16.5 -22.5t-6.5 -20.5q-37 -7 -92.5 28t-80.5 66q-51 -20 -124 -8t-73 28q-2 10 12.5 15.5t18.5 9.5h67zM76 587.5q0 12.5 36 12.5q142 0 142 -78q0 -27 -89.5 -179t-101.5 -245q3 -6 17 -6
q35 0 150 88l22 17q10 0 10 -13q-2 -2 -4 -6t-5 -9q-23 -39 -79 -88.5t-133 -49.5q-29 0 -56.5 21.5t-27.5 61.5t15.5 94t36 112.5t41 112.5t31.5 88t3 44t-8 22.5z" />
    <glyph glyph-name="idieresis" unicode="&#xef;" horiz-adv-x="208" 
d="M329.5 864q10.5 0 16.5 -6q15 -4 27 -20t11 -20t-5 -7.5t-12 -16.5q-13 -22 -33.5 -71t-36.5 -57q-16 0 -31.5 8t-7.5 57t17.5 77t17.5 40t17 14t19.5 2zM205 864q10 0 16 -6q15 -4 27 -20t11 -20t-5 -7.5t-12 -16.5q-13 -22 -33.5 -71t-36.5 -57q-16 0 -31.5 8t-7.5 57
t17.5 77t17.5 40t17.5 14t19.5 2zM76 587.5q0 12.5 36 12.5q142 0 142 -78q0 -27 -89.5 -179t-101.5 -245q3 -6 17 -6q35 0 150 88l22 17q10 0 10 -13q-2 -2 -4 -6t-5 -9q-23 -39 -79 -88.5t-133 -49.5q-29 0 -56.5 21.5t-27.5 61.5t15.5 94t36 112.5t41 112.5t31.5 88t3 44
t-8 22.5z" />
    <glyph glyph-name="ntilde" unicode="&#xf1;" horiz-adv-x="477" 
d="M120 614q32 0 67 -8q36 -8 55 -30q18 -23 16 -47t-53 -103q31 33 67 86t67 74q30 20 53 20t58 -6t54 -29q18 -21 18 -41t-9 -40t-37 -68q-138 -241 -144 -324q0 -6 14 -6q37 0 151 88q21 17 25 17q6 -4 6 -13l-6 -12l-24 -32q-43 -58 -95 -83q-51 -26 -87 -26
q-36 1 -64 23t-29 76q0 54 48 183q49 130 57 151q8 20 8 28t-5 8t-19 -14q-145 -135 -246 -306q-41 -70 -46 -127q-2 -10 -5 -17t-25 -1q-59 15 -53 63q5 86 79 271t78 206l-6 25q0 14 32 14zM475 623q-77 0 -124 80q-17 30 -35 56q-18 25 -62 25q-45 0 -78 -45q-14 0 -14 9
q0 30 36 58t106 28t118 -82q36 -60 58 -75t40 -15l25 4q25 0 24 -15q1 -10 -23 -19t-71 -9z" />
    <glyph glyph-name="ograve" unicode="&#xf2;" horiz-adv-x="497" 
d="M358 432q-42 -9 -51 -82q0 -40 19 -63q10 29 23 59t14 56q1 24 -5 30zM582 322q4 0 4 -16t-49 -54t-121 -49q-55 -98 -128 -137t-140 -39q-68 0 -114 54t-41 171t88 244q36 55 80 91q43 36 73 36q30 -1 46 -11q39 -26 44 -73q0 -9 -28 -15t-64 -45t-73 -115t-43 -175
q-5 -99 51 -99t126 123q-25 12 -47 44q-39 55 -10 146q46 143 147 146q94 0 94 -131q-4 -63 -39 -160q79 14 128 57q16 14 16 7zM313 850q1 -24 25 -52q57 -65 158 -93q41 -20 25 -36q-15 -15 -99 -4t-136 47q-42 27 -37 65t29 60q23 23 29 19z" />
    <glyph glyph-name="oacute" unicode="&#xf3;" horiz-adv-x="497" 
d="M358 432q-42 -9 -51 -82q0 -40 19 -63q10 29 23 59t14 56q1 24 -5 30zM582 322q4 0 4 -16t-49 -54t-121 -49q-55 -98 -128 -137t-140 -39q-68 0 -114 54t-41 171t88 244q36 55 80 91q43 36 73 36q30 -1 46 -11q39 -26 44 -73q0 -9 -28 -15t-64 -45t-73 -115t-43 -175
q-5 -99 51 -99t126 123q-25 12 -47 44q-39 55 -10 146q46 143 147 146q94 0 94 -131q-4 -63 -39 -160q79 14 128 57q16 14 16 7zM451 850l6 6q6 4 24 -14q76 -76 -3 -126q-99 -62 -204 -54q-48 3 -35 21q5 7 15 13t14 9q107 31 145 78t38 67z" />
    <glyph glyph-name="ocircumflex" unicode="&#xf4;" horiz-adv-x="497" 
d="M358 432q-42 -9 -51 -82q0 -40 19 -63q10 29 23 59t14 56q1 24 -5 30zM582 322q4 0 4 -16t-49 -54t-121 -49q-55 -98 -128 -137t-140 -39q-68 0 -114 54t-41 171t88 244q36 55 80 91q43 36 73 36q30 -1 46 -11q39 -26 44 -73q0 -9 -28 -15t-64 -45t-73 -115t-43 -175
q-5 -99 51 -99t126 123q-25 12 -47 44q-39 55 -10 146q46 143 147 146q94 0 94 -131q-4 -63 -39 -160q79 14 128 57q16 14 16 7zM246 760q63 0 116 39v2q19 19 41 24q40 7 43 -39q5 -57 107 -122q16 -24 18 -33q2 -8 -8 -10q-59 -12 -141 62q-20 17 -33 32q-57 -23 -126 -10
q-70 13 -70 30q-2 9 12 15t18 10h23z" />
    <glyph glyph-name="otilde" unicode="&#xf5;" horiz-adv-x="497" 
d="M358 432q-42 -9 -51 -82q0 -40 19 -63q10 29 23 59t14 56q1 24 -5 30zM582 322q4 0 4 -16t-49 -54t-121 -49q-55 -98 -128 -137t-140 -39q-68 0 -114 54t-41 171t88 244q36 55 80 91q43 36 73 36q30 -1 46 -11q39 -26 44 -73q0 -9 -28 -15t-64 -45t-73 -115t-43 -175
q-5 -99 51 -99t126 123q-25 12 -47 44q-39 55 -10 146q46 143 147 146q94 0 94 -131q-4 -63 -39 -160q79 14 128 57q16 14 16 7zM510 623q-77 0 -124 80q-16 30 -34 56q-18 25 -63 25t-78 -45q-14 0 -14 9q-1 30 35 58t106 28t119 -82q37 -60 59 -75t39 -15l25 4
q25 0 24 -15q0 -10 -24 -19q-22 -9 -70 -9z" />
    <glyph glyph-name="odieresis" unicode="&#xf6;" horiz-adv-x="497" 
d="M358 432q-42 -9 -51 -82q0 -40 19 -63q10 29 23 59t14 56q1 24 -5 30zM582 322q4 0 4 -16t-49 -54t-121 -49q-55 -98 -128 -137t-140 -39q-68 0 -114 54t-41 171t88 244q36 55 80 91q43 36 73 36q30 -1 46 -11q39 -26 44 -73q0 -9 -28 -15t-64 -45t-73 -115t-43 -175
q-5 -99 51 -99t126 123q-25 12 -47 44q-39 55 -10 146q46 143 147 146q94 0 94 -131q-4 -63 -39 -160q79 14 128 57q16 14 16 7zM510 864q10 0 16 -6q15 -4 27 -20t11 -20t-5 -8q-15 -12 -41 -74q-25 -62 -41 -70q-16 0 -32 8q-15 8 -7 57q20 124 52 131q10 2 20 2zM385 864
q10 0 16 -6q15 -4 27 -20t11 -20t-5 -8q-15 -12 -41 -74q-25 -62 -41 -70q-16 0 -31 8t-7 57q19 124 52 131q9 2 19 2z" />
    <glyph glyph-name="divide" unicode="&#xf7;" horiz-adv-x="653" 
d="M342 500q-22 0 -37 14q-17 10 -33 28t-16 26q0 6 5 8q18 5 42 41q23 35 50 70q12 13 22 13q11 0 31 -12t20 -44t-24 -79q-24 -48 -23 -51q-15 -14 -37 -14zM292 156q-22 0 -38 14q-16 10 -32 30t-17 25q0 6 9 8t33 35t57 75q12 13 22 13t30 -11q45 -25 -5 -124
q-9 -21 -16 -35t-7 -16q-14 -14 -36 -14zM614 498q6 6 12 -10q13 -38 -3 -75q-15 -37 -50 -51t-112 -6q-306 31 -398 -12q-14 -6 -16 -13t-6 -9q-2 0 -2 4q-15 34 9 64q47 56 133 67q87 10 171 7q224 -8 262 34z" />
    <glyph glyph-name="oslash" unicode="&#xf8;" horiz-adv-x="497" 
d="M358 432q-45 -10 -51 -82q0 -40 19 -63q10 29 23 60t14 55t-5 30zM116 175q-1 -5 -1 -9q29 86 72.5 177t78.5 165q-62 -41 -103.5 -137.5t-43.5 -143.5t-3 -52zM166 90q56 0 127 123q-40 20 -57 66q-61 -136 -82 -189h12zM547 298q27 26 33 26t6 -18t-50.5 -55.5
t-119.5 -47.5q-55 -98 -128 -137t-141 -39h-14q-4 -19 -4 -27t4 -10t4 -4t-12 -2t-22.5 17t-12.5 36q-104 44 -96 211q4 119 63.5 211t103.5 128t79 36t61 -31q14 39 14 48t4 9q12 0 35 -13t23 -32t-17 -57l23 2q94 0 94 -131q-4 -63 -39 -160q82 14 109 40z" />
    <glyph glyph-name="ugrave" unicode="&#xf9;" horiz-adv-x="501" 
d="M535 197q11 -7 -3 -28q-98 -140 -213 -140q-35 1 -57 29t-22 81q-49 -66 -127 -99q-29 -11 -62 -11q-33 1 -57 27t-24 87q1 61 45 181q43 121 62 173t19 62l-8 29q0 4 11 10t35 6t57 -6q34 -6 52 -30q19 -23 19 -48t-37 -88q-149 -252 -151 -334q0 -6 21 -6t78 37t77 61
q21 89 68 217t49 152l-9 29q0 4 12 10t34 6q81 0 116 -45q12 -16 12 -40t-37 -87q-144 -244 -153 -334q2 -6 32 -6t77 36t63 52q16 17 21 17zM276 850q0 -22 24 -51q55 -66 159 -94q41 -20 26 -35t-100 -5q-84 11 -136 47q-42 27 -37 65t29 60q23 23 29 19z" />
    <glyph glyph-name="uacute" unicode="&#xfa;" horiz-adv-x="501" 
d="M535 197q11 -7 -3 -28q-98 -140 -213 -140q-35 1 -57 29t-22 81q-49 -66 -127 -99q-29 -11 -62 -11q-33 1 -57 27t-24 87q1 61 45 181q43 121 62 173t19 62l-8 29q0 4 11 10t35 6t57 -6q34 -6 52 -30q19 -23 19 -48t-37 -88q-149 -252 -151 -334q0 -6 21 -6t78 37t77 61
q21 89 68 217t49 152l-9 29q0 4 12 10t34 6q81 0 116 -45q12 -16 12 -40t-37 -87q-144 -244 -153 -334q2 -6 32 -6t77 36t63 52q16 17 21 17zM410 850l6 6q6 4 24 -14q76 -76 -3 -126q-99 -62 -204 -54q-48 3 -35 21q5 7 15 13t14 9q107 31 145 78t38 67z" />
    <glyph glyph-name="ucircumflex" unicode="&#xfb;" horiz-adv-x="501" 
d="M535 197q11 -7 -3 -28q-98 -140 -213 -140q-35 1 -57 29t-22 81q-49 -66 -127 -99q-29 -11 -62 -11q-33 1 -57 27t-24 87q1 61 45 181q43 121 62 173t19 62l-8 29q0 4 11 10t35 6t57 -6q34 -6 52 -30q19 -23 19 -48t-37 -88q-149 -252 -151 -334q0 -6 21 -6t78 37t77 61
q21 89 68 217t49 152l-9 29q0 4 12 10t34 6q81 0 116 -45q12 -16 12 -40t-37 -87q-144 -244 -153 -334q2 -6 32 -6t77 36t63 52q16 17 21 17zM200 760q63 0 117 39v2q19 19 40 23q40 8 44 -38q5 -57 107 -122q16 -24 18 -33q2 -8 -8 -10q-59 -12 -141 62q-20 17 -33 32
q-57 -23 -126 -10t-71 30q-1 9 13 15t18 10h22z" />
    <glyph glyph-name="udieresis" unicode="&#xfc;" horiz-adv-x="501" 
d="M535 197q11 -7 -3 -28q-98 -140 -213 -140q-35 1 -57 29t-22 81q-49 -66 -127 -99q-29 -11 -62 -11q-33 1 -57 27t-24 87q1 61 45 181q43 121 62 173t19 62l-8 29q0 4 11 10t35 6t57 -6q34 -6 52 -30q19 -23 19 -48t-37 -88q-149 -252 -151 -334q0 -6 21 -6t78 37t77 61
q21 89 68 217t49 152l-9 29q0 4 12 10t34 6q81 0 116 -45q12 -16 12 -40t-37 -87q-144 -244 -153 -334q2 -6 32 -6t77 36t63 52q16 17 21 17zM449 864q18 0 24 -6q15 -4 27 -20t11 -20t-5 -8q-15 -12 -41 -74q-25 -62 -41 -70q-16 0 -32 8q-15 8 -4 77t27 91t34 22zM332 864
q10 0 16 -6q15 -4 27 -20t11 -20t-5 -8q-15 -12 -41 -74q-25 -62 -41 -70q-16 0 -32 8q-15 8 -7 57q20 124 52 131q10 2 20 2z" />
    <glyph glyph-name="yacute" unicode="&#xfd;" horiz-adv-x="491" 
d="M199 43q0 6 4 17l10 28q6 16 10 33q-29 -29 -67 -60t-97 -30h138q2 6 2 12zM-34 -47q-29 0 -29 -4q9 -27 43 -43t69 -17q63 0 105 52q-159 12 -188 12zM98 562l-8 26q0 16 34 16t67 -6q34 -6 52 -30q19 -23 19 -48t-37 -88q-144 -244 -151 -334q0 -6 19 -6t82 39t73 64
q18 76 67 214t49 151q0 14 -4 18t-4 9q0 17 34 17t67 -6t52 -30t19 -38t-16 -49t-42 -84t-56 -109t-60 -118q-14 -35 -25 -67t-26 -72q207 0 207 16q18 0 18 -46t-22 -70t-82 -23q-12 0 -164 20q-29 -59 -84 -90t-120 -31t-123 46t-58 89q0 44 26 61q45 30 94 28q48 -2 52 0
q-29 3 -53 27t-24 83q1 59 46 182q44 124 63 176t19 63zM418 850l6 6q6 4 30 -19t27 -50q4 -27 -7 -47t-83 -52t-149 -26q-49 3 -36 21q5 7 30 22q137 40 176 124q6 17 6 21z" />
    <glyph glyph-name="ydieresis" unicode="&#xff;" horiz-adv-x="491" 
d="M199 43q0 6 4 17l10 28q6 16 10 33q-29 -29 -67 -60t-97 -30h138q2 6 2 12zM-34 -47q-29 0 -29 -4q9 -27 43 -43t69 -17q63 0 105 52q-159 12 -188 12zM98 562l-8 26q0 16 34 16t67 -6q34 -6 52 -30q19 -23 19 -48t-37 -88q-144 -244 -151 -334q0 -6 19 -6t82 39t73 64
q18 76 67 214t49 151q0 14 -4 18t-4 9q0 17 34 17t67 -6t52 -30t19 -38t-16 -49t-42 -84t-56 -109t-60 -118q-14 -35 -25 -67t-26 -72q207 0 207 16q18 0 18 -46t-22 -70t-82 -23q-12 0 -164 20q-29 -59 -84 -90t-120 -31t-123 46t-58 89q0 44 26 61q45 30 94 28q48 -2 52 0
q-29 3 -53 27t-24 83q1 59 46 182q44 124 63 176t19 63zM436 864q10 0 17 -6q15 -5 29 -23t6 -23q-7 -5 -15 -18q-8 -14 -32 -67q-23 -53 -38 -61q-16 0 -31 8t-7 57q20 125 52 131q9 2 19 2zM311 864q10 0 17 -6q15 -5 29 -23t6 -23q-7 -5 -15 -18q-8 -14 -32 -67
q-23 -54 -37 -61q-16 0 -32 8q-15 8 -7 57q20 125 52 131q9 2 19 2z" />
    <glyph glyph-name="OE" unicode="&#x152;" horiz-adv-x="1175" 
d="M834 629q2 0 3 1l-3 1v-2zM702 442q-147 -60 -147 -213q0 -82 31 -133q8 8 8 10q92 146 108 336zM1044 160q0 104 -65 104q-34 0 -58 -20.5t-33.5 -29.5t-17.5 -9q-17 0 -42 36t-25 68q-49 -134 -123 -223l-43 -55q74 -67 176 -74q102 -8 166.5 45.5t64.5 157.5zM528 23
q-84 88 -84 227t71 222.5t179 121.5q-10 37 -24 68q-119 30 -119 80q0 22 6 53v2q-92 66 -137 51q-8 -4 -2 16.5t36 69t66 49.5q36 2 110 -42t124 -114q115 13 164 31q173 44 247 93.5t86.5 49.5t42.5 -6t59 -23.5t29 -43.5t-13 -45q-13 -20 -106.5 -122.5t-93.5 -154.5
q0 -12 10.5 -20t10.5 -10.5t-8 -2.5q-78 19 -78 95q0 49 26 98q-41 -16 -95 -35.5t-105 -19.5q16 -10 39.5 -23.5t46 -29t39 -35t16.5 -57.5t-21.5 -58.5t-101.5 -20.5q-29 -4 -56.5 -6t-53.5 -6q-9 -71 -23 -127q12 23 45 43.5t77 20.5q86 0 148 -45t62 -155t-85 -216
t-286 -96q-112 10 -205 82q-109 -84 -231 -84q-152 0 -228.5 116.5t-76.5 248.5q0 131 34.5 218.5t80 150t89.5 100.5t59 47l25 15q25 15 43.5 22t33 12.5t30.5 4.5q32 -2 60 -55t28 -71q0 -19 -5 -20t-28 -2.5t-57 -21.5q-33 -20 -71 -44.5t-118.5 -118t-80.5 -273.5
q0 -115 56 -194.5t147 -79.5t167 70z" />
    <glyph glyph-name="oe" unicode="&#x153;" horiz-adv-x="774" 
d="M326 287l5 17l34 106q-1 16 -7 22q-45 -10 -51 -82q0 -40 19 -63zM649 455q5 30 -39 30q-22 0 -70 -48t-77 -130q47 0 116.5 48t69.5 100zM781 227q7 0 9 -9q1 -9 -4 -13q-23 -46 -64.5 -83.5t-100.5 -65t-151 -27.5t-128 77q-86 -79 -195 -79q-66 0 -112.5 54t-41.5 170
t64.5 208t103 128t73.5 36t45.5 -10.5t25.5 -25t14.5 -27.5t4.5 -21.5t-28 -14.5t-63.5 -45t-73 -114t-43.5 -175q-5 -100 51 -100t126 123q-25 12 -47.5 44t-19.5 77q6 86 48.5 150.5t108.5 64.5q39 0 63 -25q92 97 185 97t120 -53.5t24 -104.5q-6 -97 -93.5 -157
t-175.5 -60q-33 0 -60 10q-27 -107 8 -135.5t74 -28.5q71 0 141.5 39t87.5 67.5t24 28.5z" />
    <glyph glyph-name="Ydieresis" unicode="&#x178;" horiz-adv-x="854" 
d="M458 -143q15 -27 22 -15q28 48 100 264q-60 0 -95 -67q-36 -67 -39 -111t12 -71zM573 246q19 4 33 4t21 12q15 30 37 96q-49 -68 -91 -112zM406 971q-93 0 -149 -81t-56 -182q0 -100 41 -137q164 391 164 400zM227 180q0 -49 52 -49q82 0 219 126t245 347q49 149 69 200
q31 80 16 105q-5 11 -5 19t37 8t68 -6t50 -31q19 -23 19 -53t-12 -51q-6 -19 -28 -77t-75 -209t-110 -292q16 -1 21 -29q6 -28 6 -55q-1 -27 -19 -55q-18 -29 -22 -29l-45 23q-82 -194 -155 -255q-38 -32 -83 -28q-50 0 -87 103q-11 34 -11 99t26 118q-78 -43 -145 -43
t-96 34t-29 86q0 119 45 232q-115 80 -115 239t106 267t216 106q159 0 162 -94q1 -31 -25 -86t-58 -121t-79 -164q35 10 49 32q14 21 18 21t15 -11q51 -56 51 -113t-26 -77q-54 -42 -164 -42l-29 2q-23 -51 -47 -107t-25 -90zM778 1274q10 0 17 -6q15 -5 28 -24t7 -23
q-7 -3 -15 -17t-32 -68q-23 -53 -38 -61q-16 0 -31 8t-4 78t25 89q13 20 23 22t20 2zM653 1274q10 0 17 -6q15 -5 28 -24t7 -23q-7 -3 -15 -17t-32 -68q-23 -54 -37 -61q-16 0 -32 8q-15 8 -4 78t25 89q14 20 24 22t19 2z" />
    <glyph glyph-name="circumflex" unicode="&#x2c6;" horiz-adv-x="385" 
d="M51 760q60 0 117 39v2q19 19 40 24q40 7 44 -39q5 -56 106 -122q4 -6 17 -23t-7 -20q-19 -4 -45 5q-79 27 -128 89q-56 -22 -126 -9q-71 13 -71 29q-2 9 12 15t19 10h22z" />
    <glyph glyph-name="ring" unicode="&#x2da;" horiz-adv-x="190" 
d="M94 780q-12 0 -12 -30t5 -31.5t9 -1.5q14 14 21 49q0 4 -9.5 9t-13.5 5zM92.5 680q-22.5 0 -39 12t-16.5 72t14.5 79t40.5 19t54 -19.5t28 -29.5t-4 -30.5t-13.5 -43t-25.5 -41t-38.5 -18.5z" />
    <glyph glyph-name="tilde" unicode="&#x2dc;" horiz-adv-x="448" 
d="M363 662q9 0 33 2t24 -13q0 -10 -23 -19t-71 -9t-77.5 25.5t-47 55t-34.5 55t-62 25.5t-78 -45q-14 0 -15 9q0 29 36 57.5t106 28.5t118 -82q35 -59 58.5 -74.5t32.5 -15.5z" />
    <glyph glyph-name="endash" unicode="&#x2013;" horiz-adv-x="667" 
d="M616 498q6 4 11.5 -12.5t3.5 -64t-58.5 -59t-233 7.5t-273.5 -26q-14 -6 -16.5 -13t-6.5 -9q-2 0 -2 4q-16 35 8.5 64.5t62.5 49.5q55 28 259 30.5t245 27.5z" />
    <glyph glyph-name="quoteright" unicode="&#x2019;" horiz-adv-x="288" 
d="M323 862q34 0 45 -11t17 -24q-2 -2 -2 -4h-2q0 -12 -54.5 -112.5t-68.5 -100.5t-25.5 8.5t-9.5 12.5q-4 4 -4 6l11 26q11 26 37 82.5t26 85.5l-4 17q0 14 34 14z" />
    <glyph glyph-name="Euro" unicode="&#x20ac;" horiz-adv-x="753" 
d="M240 367l48 1q48 1 52 9q8 -3 8 -25q0 -53 -51 -53q-28 0 -90 4q-2 -10 -2 -13v-24q0 -68 33 -122t81 -54l19 2q122 40 185 142t73 102t10 -16t-33.5 -70.5t-103.5 -133.5t-161 -79t-137 83.5t-46 174.5v10q-92 0 -92 -24q-6 0 -6 15t10 26.5t25.5 19.5t34 12t32.5 8
q10 52 18 80q-114 0 -114 -26q-6 0 -6 17q0 31 45.5 49t93.5 18q51 129 141 223t176 94q53 0 75 -17.5t26 -21.5q22 37 22 58l-6 24q0 8 14 8t39 -3t49.5 -15t24.5 -34t-4 -32t-9 -26t-30 -54t-73 -120.5t-48 -109.5t10.5 -35.5t10.5 -10.5t-16 -2t-46 27.5t-30 75.5t36 135
q-19 26 -45 36q-62 0 -122 -77.5t-85 -118.5h30q30 0 34 8q8 -3 8 -21q0 -36 -16.5 -46.5t-89.5 -10.5q-12 -33 -23 -67h21z" />
    <glyph glyph-name="trademark" unicode="&#x2122;" horiz-adv-x="1046" 
d="M894.5 645q0.5 13 4.5 20t29.5 8t37.5 5t14.5 6t8.5 0t10.5 -22.5t-2.5 -30.5q-10 -20 -40.5 -17.5t-46.5 10.5t-15.5 21zM209 645.5q0 -12.5 -15 -20.5t-46.5 -11.5t-39.5 12.5t-3.5 36t10.5 22t8 0t14 -6t38 -5t30 -8t4 -19.5zM622 922q84 0 83 -39q0 -18 -27 -70
q29 37 55.5 72t55.5 35q73 0 73 -43q0 -12 -6 -19q-4 -12 -48.5 -88t-49.5 -127q0 -2 8 -2q17 0 58.5 30.5t41.5 20.5q-4 -4 -4 -7t-2 -5t-11 -14.5t-37 -36t-56 -23.5q-56 0 -56 51q0 38 26 106t32 89v-4q4 6 4 10l-2 2h-2q-5 0 -82.5 -82.5t-77.5 -159.5q0 -8 -8 -8
q-37 0 -37 33q0 62 51 209v6q0 2 -4 2t-12 -7q-41 -36 -101 -112t-63 -120v-5q0 -2 1 -4t-8 -2t-22.5 8.5t-10.5 27.5q5 33 32 107t43 108t16 42l-4 12q-1 11 23 11t47.5 -11.5t21.5 -29.5t-39 -76q33 37 57.5 75t40.5 38zM311 559q-45 0 -45 72t43 172q20 59 47 126.5
t43 110.5q-102 7 -121 7q-62 0 -131 -24t-69 -71t27 -65.5t47 -18.5t29 7.5t14.5 15.5t8.5 15t15 7t29.5 -17.5t17.5 -29.5q0 -26 -22 -50.5t-62 -24.5q-69 0 -113 37.5t-44 86.5q0 93 109 136t284 43l-1 12q-1 12 32 12t45 -22l67 -2q219 0 306.5 20.5t95.5 30.5q2 0 2 1
t4 1q14 0 23 -20.5t9 -32.5q0 -74 -196 -74t-322 12q-12 -31 -93 -211.5t-81 -240.5q0 -10 4 -14.5t4 -6.5h-6z" />
    <glyph glyph-name="minus" unicode="&#x2212;" horiz-adv-x="669" 
d="M618 498q6 6 11.5 -10.5t2 -60.5t-47.5 -61q-43 -18 -231 2.5t-285 -24.5q-14 -6 -16.5 -13t-6.5 -9q-2 0 -2 4q-16 35 8.5 64.5t56.5 45.5t77.5 21.5t97 6.5t104.5 -1t128.5 1.5t102.5 33.5z" />
    </font>
</defs>
</svg>
